<?xml version="1.0" encoding="UTF-8"?>
<svg version="1.1" xmlns="http://www.w3.org/2000/svg" width="1024" height="1024">
<path d="M0 0 C337.92 0 675.84 0 1024 0 C1024 337.92 1024 675.84 1024 1024 C686.08 1024 348.16 1024 0 1024 C0 686.08 0 348.16 0 0 Z " fill="#0C101A" transform="translate(0,0)"/>
<path d="M0 0 C21.80251977 -0.09382798 43.60500581 -0.16416639 65.40768719 -0.20724869 C75.53317235 -0.22779252 85.65853139 -0.25575485 95.78393555 -0.30175781 C104.61880439 -0.341878 113.4535818 -0.36749209 122.28853923 -0.37635398 C126.95792876 -0.38152652 131.62705694 -0.39350883 136.29636192 -0.42292023 C174.29533843 -0.65279266 174.29533843 -0.65279266 191 4 C191.8156159 4.22392174 192.6312318 4.44784348 193.47156334 4.67855072 C213.86106734 10.37401505 232.02010519 22.4714275 243 41 C252.50365673 59.75275123 252.9356246 77.18677475 247.0390625 97.2734375 C240.48847016 116.46063352 225.85340266 130.47221226 208.1875 139.6875 C201.63743875 142.86285578 195.04754948 145.20189487 188 147 C187.02776489 147.26925293 187.02776489 147.26925293 186.03588867 147.54394531 C179.64173495 149.1764952 173.50908328 149.23279884 166.9375 149.125 C165.88111328 149.11597656 164.82472656 149.10695313 163.73632812 149.09765625 C161.15730747 149.0743167 158.5787801 149.04157775 156 149 C156 149.66 156 150.32 156 151 C156.59643311 151.27497314 157.19286621 151.54994629 157.80737305 151.83325195 C159.90372675 152.94877076 161.35880414 154.05239158 163.08203125 155.66796875 C163.67306641 156.22033203 164.26410156 156.77269531 164.87304688 157.34179688 C165.51306641 157.95087891 166.15308594 158.55996094 166.8125 159.1875 C167.49248047 159.82880859 168.17246094 160.47011719 168.87304688 161.13085938 C176.37240669 168.25889811 183.66082547 175.60293014 190.92895508 182.96557617 C195.59227594 187.67800513 200.30290315 192.25793599 205.34228516 196.56933594 C207.38542985 198.33263902 209.29778181 200.19901856 211.1875 202.125 C211.85394531 202.79917969 212.52039063 203.47335937 213.20703125 204.16796875 C214.5981477 205.58939275 215.98702948 207.01300394 217.375 208.4375 C219.73707032 210.74333055 222.15778036 212.93320897 224.625 215.125 C229.53499275 219.50418272 234.15283491 224.11085389 238.75 228.8125 C240.79940827 231.0258858 240.79940827 231.0258858 243 232 C243 232.66 243 233.32 243 234 C232.42086928 234.3260398 221.84295447 234.57395053 211.25980186 234.72537041 C206.34390799 234.79809271 201.43147806 234.89650273 196.51757812 235.05615234 C191.76450913 235.20958961 187.01474424 235.29223738 182.25938797 235.3282814 C180.45622375 235.35392298 178.65321745 235.40400093 176.85148239 235.48022079 C162.06194545 236.08032023 162.06194545 236.08032023 155.79864502 230.92852783 C152.20334251 227.54773556 149.06973299 223.85487425 146 220 C144.83913884 218.68236244 143.67473402 217.36778439 142.5 216.0625 C141.74203125 215.16724609 141.74203125 215.16724609 140.96875 214.25390625 C137.49863064 210.28117039 133.85432456 206.46701123 130.23632812 202.62915039 C127.27908003 199.48187665 124.37369275 196.30482827 121.54296875 193.04296875 C117.90787576 188.86094062 114.12600294 184.83155743 110.3125 180.8125 C103.96374676 174.09387373 97.65756381 167.33963354 91.40576172 160.53076172 C89.97106417 158.9684912 88.53444764 157.40800109 87.09765625 155.84765625 C82.18341234 150.50412591 77.31348084 145.13093944 72.55859375 139.64453125 C71.08139976 137.89838432 71.08139976 137.89838432 69 137 C68.9175 137.969375 68.835 138.93875 68.75 139.9375 C68.32092934 142.97093859 67.47254037 145.40632654 66.171875 148.17578125 C64.06394498 152.79668524 62.24100711 157.48034028 60.5 162.25 C60.04500122 163.48834595 60.04500122 163.48834595 59.58081055 164.75170898 C57.4882287 170.50560947 55.63396335 176.30349229 53.88671875 182.171875 C52.80647611 185.6172304 51.49224589 188.92143052 50.1171875 192.2578125 C44.53252841 205.96561209 39.85984487 220.02794599 35 234 C13.22 234 -8.56 234 -31 234 C-29.71471766 228.21622945 -28.54527241 223.32321144 -26.5625 217.875 C-26.03232509 216.40242545 -25.50239961 214.9297611 -24.97265625 213.45703125 C-24.66859863 212.61736816 -24.36454102 211.77770508 -24.05126953 210.91259766 C-22.09219841 205.48488783 -20.16012242 200.04753194 -18.2277832 194.61026001 C-17.74241123 193.24457129 -17.2567339 191.87899106 -16.77075195 190.51351929 C-13.70179178 181.88742373 -10.70803781 173.24264731 -7.85986328 164.54077148 C-6.38667999 160.06841349 -4.74241679 155.70895984 -2.93359375 151.36328125 C-1.42560731 147.5459934 -0.20582646 143.63522861 1.06640625 139.734375 C2 137 2 137 3.5 133.5625 C4.87849404 130.28857666 5.91929962 127.08678376 6.9375 123.6875 C8.39181583 118.84718167 10.02276057 114.17305734 11.97265625 109.51171875 C12.87697405 107.30078207 13.72829598 105.08041031 14.56420898 102.84301758 C14.83337631 102.12318192 15.10254364 101.40334625 15.37986755 100.66169739 C15.58451126 100.11333725 15.78915497 99.56497711 16 99 C16.71653653 98.99761165 17.43307306 98.99522329 18.17132282 98.99276257 C35.64178669 98.93351285 53.11210394 98.85789932 70.58241749 98.76428509 C79.03108786 98.71940381 87.47971681 98.67997164 95.9284668 98.65356445 C103.29618341 98.63052207 110.66376806 98.59705487 118.03137988 98.55129844 C121.92905428 98.52744997 125.82659867 98.50866654 129.72434425 98.50238609 C133.40078543 98.49629702 137.07689431 98.47616124 140.75321198 98.44572449 C142.72987998 98.43287978 144.70662586 98.43450369 146.68333435 98.4367218 C158.07489975 98.31784781 170.68409588 96.33343258 179.62890625 88.58984375 C184.33497325 83.3218583 186.69343449 77.28552549 186.40625 70.2734375 C185.53544628 65.40028592 183.18989071 61.54391877 179.1328125 58.68359375 C177.10209964 57.61292607 175.16835721 56.75779958 173 56 C172.03783569 55.65801071 171.07567139 55.31602142 170.08435059 54.96366882 C164.92003865 53.51144423 159.71702779 53.74853022 154.39257812 53.79223633 C152.66689857 53.79403397 152.66689857 53.79403397 150.90635681 53.79586792 C148.41607348 53.79901087 145.92579266 53.80630675 143.43553162 53.8173008 C139.49276251 53.83217646 135.5503318 53.83054847 131.60754395 53.82365417 C120.4002082 53.80452132 109.19311182 53.79780722 97.98583984 53.84545898 C91.12405156 53.87444775 84.26301514 53.86674142 77.40122986 53.83844566 C74.78896543 53.8341847 72.17664776 53.84266932 69.56446838 53.8641758 C65.91128197 53.89302273 62.26058952 53.87875255 58.60742188 53.85473633 C57.53084824 53.87369461 56.4542746 53.89265289 55.34507751 53.91218567 C49.9531786 53.83058189 46.81989859 53.45986176 42.8956604 49.58041382 C41.90387553 48.40892487 40.93443591 47.21772456 40 46 C39.36046387 45.29335205 38.72092773 44.5867041 38.06201172 43.85864258 C37.56459473 43.27236084 37.06717773 42.6860791 36.5546875 42.08203125 C32.87679827 37.82056172 29.01177174 33.75779553 25.125 29.6875 C19.10127655 23.33704736 13.43629007 16.8620122 8 10 C4.51308022 5.39354742 4.51308022 5.39354742 0 2 C0 1.34 0 0.68 0 0 Z " fill="#1FA9F5" transform="translate(352,251)"/>
<path d="M0 0 C0.33 0 0.66 0 1 0 C1.67047742 4.10355363 2.33572962 8.2079374 3 12.3125 C3.19078125 13.47974609 3.3815625 14.64699219 3.578125 15.84960938 C3.75859375 16.96787109 3.9390625 18.08613281 4.125 19.23828125 C4.29257812 20.26993408 4.46015625 21.30158691 4.6328125 22.36450195 C5 25 5 25 5 28 C5.99 28 6.98 28 8 28 C8.33 28.99 8.66 29.98 9 31 C16.26 32.32 23.52 33.64 31 35 C31 35.33 31 35.66 31 36 C24.73148088 37.4005585 18.67248641 38.2757854 12.25 38.55859375 C11.5075 38.70425781 10.765 38.84992188 10 39 C9.34 39.99 8.68 40.98 8 42 C7.01 42 6.02 42 5 42 C4.66252452 44.87456792 4.32989537 47.74956059 4 50.625 C3.90460938 51.43324219 3.80921875 52.24148438 3.7109375 53.07421875 C2.33370137 60.93230096 2.33370137 60.93230096 4.43359375 68.17578125 C5.09488281 68.88089844 5.75617188 69.58601563 6.4375 70.3125 C23.46007047 90.3888531 27.7854709 116.40970558 26 142 C23.36420045 165.00407097 15.58779847 187.55931228 0 205 C-0.72445312 205.87785156 -1.44890625 206.75570312 -2.1953125 207.66015625 C-15.96844345 223.81972078 -35.02078915 233.99044363 -54.55078125 241.58984375 C-58.03948352 242.88290661 -58.03948352 242.88290661 -61 245 C-62.68138369 245.45991824 -64.38364567 245.84577856 -66.09375 246.18359375 C-67.11525146 246.38766846 -68.13675293 246.59174316 -69.18920898 246.80200195 C-70.82805054 247.11657349 -70.82805054 247.11657349 -72.5 247.4375 C-73.61898682 247.65559326 -74.73797363 247.87368652 -75.89086914 248.09838867 C-84.24564514 249.7067024 -92.60573095 251.31226913 -101.0390625 252.453125 C-104.84201725 252.91733207 -104.84201725 252.91733207 -107.8984375 253.671875 C-111.34953697 254.23030533 -113.91044439 253.78452801 -116.7746582 251.72216797 C-117.31952881 251.19252441 -117.86439941 250.66288086 -118.42578125 250.1171875 C-119.03703857 249.52671631 -119.6482959 248.93624512 -120.27807617 248.32788086 C-122.0627728 246.50119137 -123.79183877 244.637284 -125.5078125 242.74609375 C-128.4661228 239.4881543 -131.62856747 236.61644059 -134.96923828 233.75708008 C-138.36765985 230.81665689 -141.61113418 227.71299285 -144.875 224.625 C-150.21742438 219.59054116 -155.59312624 214.60920285 -161.08203125 209.734375 C-162.77679385 208.20184018 -164.39163199 206.62174026 -166 205 C-165.39437729 204.99191315 -164.78875458 204.98382629 -164.16477966 204.97549438 C-157.78780216 204.88857443 -151.41110486 204.78904787 -145.03442383 204.68261719 C-142.66337844 204.64463669 -140.29228147 204.6097336 -137.92114258 204.578125 C-108.04822312 204.17503269 -78.44040321 201.80961134 -55.6875 180.1875 C-50.96328698 175.23616136 -47.30321289 169.98126528 -44 164 C-43.52691406 163.14921875 -43.05382812 162.2984375 -42.56640625 161.421875 C-35.00098622 146.42573084 -34.26975369 128.98576725 -39 113 C-40.94293818 108.37816221 -43.26384764 104.19622499 -46 100 C-46.43957031 99.32582031 -46.87914062 98.65164063 -47.33203125 97.95703125 C-55.16715297 87.6127769 -68.06258598 82.00422901 -80 78 C-81.11665039 77.60155884 -81.11665039 77.60155884 -82.25585938 77.19506836 C-88.89881451 74.97610363 -95.15158968 74.46776041 -102.125 74.3125 C-103.176875 74.27833984 -104.22875 74.24417969 -105.3125 74.20898438 C-107.87489313 74.12745368 -110.43698497 74.05800272 -113 74 C-113.43699219 72.76636719 -113.43699219 72.76636719 -113.8828125 71.5078125 C-121.1987253 51.58460343 -133.12469354 38.20960855 -152.3125 28.875 C-156.45799151 27.52530509 -160.71599665 26.78193459 -165 26 C-165 25.67 -165 25.34 -165 25 C-155.37498119 24.92964385 -145.75005453 24.87676378 -136.12483215 24.84456348 C-131.65262596 24.82908782 -127.18059911 24.80819325 -122.70849609 24.77368164 C-82.83401601 24.47420753 -43.13622949 26.20088283 -11 53 C-9.14786411 54.48170871 -7.29368701 55.96086943 -5.4375 57.4375 C-3.95783793 58.62438266 -2.4784873 59.81165426 -1 61 C-1.30887453 58.56199034 -1.62194662 56.12464633 -1.9375 53.6875 C-2.02451172 52.99720703 -2.11152344 52.30691406 -2.20117188 51.59570312 C-2.94258428 44.94834771 -2.94258428 44.94834771 -7 40 C-9.95035562 38.99061248 -9.95035562 38.99061248 -13.1875 38.3125 C-14.27417969 38.06113281 -15.36085938 37.80976563 -16.48046875 37.55078125 C-17.31191406 37.36902344 -18.14335938 37.18726563 -19 37 C-19 36.01 -19 35.02 -19 34 C-15.04 33.01 -11.08 32.02 -7 31 C-7 30.01 -7 29.02 -7 28 C-6.01 27.67 -5.02 27.34 -4 27 C-1.83308181 21.35540541 -1.40085603 15.54950024 -0.875 9.5625 C-0.74544922 8.17901367 -0.74544922 8.17901367 -0.61328125 6.76757812 C-0.4029346 4.51219459 -0.19865598 2.25643814 0 0 Z " fill="#EAF0FC" transform="translate(728,226)"/>
<path d="M0 0 C1.19594788 -0.00630432 2.39189575 -0.01260864 3.62408447 -0.019104 C5.57698395 -0.01303131 5.57698395 -0.01303131 7.56933594 -0.00683594 C8.92299469 -0.00818439 10.27665296 -0.01012643 11.63031006 -0.01263428 C14.47852148 -0.0155891 17.3266078 -0.01128458 20.17480469 -0.00195312 C23.78534333 0.00931158 27.39558034 0.0029682 31.00610733 -0.00909805 C33.81010087 -0.01641942 36.61402625 -0.01398017 39.41802216 -0.00884247 C41.38400978 -0.00689567 43.35000028 -0.01287441 45.315979 -0.019104 C61.95856554 0.06593607 78.16355356 1.8541082 91.20996094 13.07910156 C99.20076741 21.3978889 100.73889936 31.23353051 100.74194336 42.29541016 C100.56421245 50.94706882 98.5304652 58.28575637 95.30371094 66.25878906 C94.93117188 67.20238281 94.55863281 68.14597656 94.17480469 69.11816406 C87.8418063 83.3287946 75.21442962 92.33572337 61.30371094 98.25878906 C50.35944381 102.04969644 40.35399447 102.80870108 28.87011719 102.64941406 C27.25488495 102.64192924 25.63964347 102.63624696 24.0243988 102.63226318 C19.82723745 102.61718266 15.63065324 102.57805919 11.43371582 102.53344727 C7.12939251 102.49210874 2.82497353 102.47417086 -1.47949219 102.45410156 C-9.8853524 102.41154236 -18.29074842 102.34351256 -26.69628906 102.25878906 C-25.65503906 93.69503906 -25.65503906 93.69503906 -24.96972656 90.07910156 C-24.82841309 89.33208984 -24.68709961 88.58507812 -24.54150391 87.81542969 C-24.38633301 87.01298828 -24.23116211 86.21054687 -24.07128906 85.38378906 C-23.9045166 84.51173828 -23.73774414 83.6396875 -23.56591797 82.74121094 C-22.40631235 76.7450031 -21.18745539 70.76195841 -19.94628906 64.78222656 C-19.79261871 64.04094513 -19.63894836 63.2996637 -19.48062134 62.53591919 C-18.71198925 58.83188311 -17.9388933 55.12886244 -17.15869141 51.42724609 C-15.60706103 44.01668551 -14.20848218 36.61700638 -13.16162109 29.11450195 C-12.50614638 25.09189559 -11.46200807 21.19907789 -10.41894531 17.26269531 C-9.41701665 13.09792159 -8.80804105 8.89836065 -8.22363281 4.65722656 C-7.13617574 -0.28868932 -4.46588382 0.00673716 0 0 Z " fill="#FBFBFB" transform="translate(541.6962890625,562.7412109375)"/>
<path d="M0 0 C0.33 0 0.66 0 1 0 C0.10345112 23.26544355 -8.36161889 48.31814971 -22.9375 66.625 C-23.37497559 67.18203613 -23.81245117 67.73907227 -24.26318359 68.31298828 C-25.50091269 69.88157277 -26.75006959 71.44112072 -28 73 C-28.84111328 74.05960938 -28.84111328 74.05960938 -29.69921875 75.140625 C-62.33659807 114.84198506 -121.93929922 124.10890398 -170 129 C-175.04475483 129.46645869 -180.09217347 129.89428114 -185.14477539 130.26660156 C-189.9905415 130.62920699 -194.8054551 131.08536768 -199.62708473 131.6955719 C-209.64287389 132.95107157 -219.65198435 133.64597781 -229.7265625 134.21875 C-231.48890837 134.322746 -233.25122674 134.42720879 -235.01351929 134.53210449 C-239.62076846 134.80522005 -244.22833014 135.07262469 -248.83599854 135.33856201 C-253.42469886 135.6041734 -258.01313 135.87433861 -262.6015625 136.14453125 C-263.49967494 136.19740012 -264.39778738 136.25026899 -265.32311535 136.30473995 C-267.12550425 136.41086384 -268.92789119 136.51702129 -270.73027611 136.62321281 C-272.51632145 136.72838571 -274.30237414 136.83343401 -276.08843422 136.9383564 C-287.23027464 137.59290587 -298.37153435 138.25517173 -309.51006699 138.96408081 C-311.40874841 139.08478753 -313.30753683 139.20380761 -315.20632935 139.32275391 C-323.50141929 139.85783159 -331.75086541 140.61966404 -340.0078125 141.5703125 C-343.6464439 141.98076259 -347.28142305 142.22641011 -350.9375 142.4375 C-357.42126062 142.86117631 -363.78398804 143.78357522 -370.19506836 144.80834961 C-375.29984824 145.62014958 -380.40698036 146.30299882 -385.5390625 146.921875 C-394.2333832 147.98171217 -402.86366057 149.36006998 -411.5 150.8125 C-412.27837219 150.94250397 -413.05674438 151.07250793 -413.85870361 151.20645142 C-426.49358523 153.3224835 -439.04848765 155.71014323 -451.56152344 158.46386719 C-454.57670893 159.12679744 -457.59601154 159.76944505 -460.61572266 160.41137695 C-463.07829905 160.93560771 -465.53927971 161.46713275 -468 162 C-465.68629168 159.37408382 -463.54887453 158.19538788 -460.30859375 156.9140625 C-459.37337891 156.5432959 -458.43816406 156.1725293 -457.47460938 155.79052734 C-456.47236328 155.40590332 -455.47011719 155.0212793 -454.4375 154.625 C-453.40044922 154.22361816 -452.36339844 153.82223633 -451.29492188 153.40869141 C-443.81188056 150.56628694 -436.32151643 148.23097914 -428.578125 146.23046875 C-425.3820728 145.39830736 -422.24716755 144.45594533 -419.109375 143.42578125 C-384.74790033 132.20668775 -348.41875224 127.02508986 -312.66992188 122.46948242 C-310.18586748 122.15170457 -307.70280161 121.82611843 -305.22070312 121.4934082 C-294.66954229 120.1086013 -284.11092046 119.22284091 -273.5 118.4375 C-270.97917011 118.24875274 -268.45844154 118.05883225 -265.93786621 117.86671448 C-264.38862745 117.74883206 -262.83923821 117.63290256 -261.28967285 117.51939392 C-257.90264784 117.26349917 -254.56145763 116.94242726 -251.19140625 116.5 C-245.94843515 115.81935877 -240.68334074 115.5897876 -235.40625 115.31640625 C-233.13540824 115.19221118 -230.86457518 115.06785707 -228.59375 114.94335938 C-225.05740169 114.75262125 -221.52098015 114.56360291 -217.984375 114.37768555 C-206.22409083 113.75555729 -194.54040192 113.13399787 -182.87011719 111.50878906 C-179.22731145 111.02988374 -175.59404741 110.66700845 -171.93597412 110.33529663 C-159.93601404 109.23831307 -148.11468812 107.39698133 -136.25 105.3125 C-135.24319183 105.1367041 -134.23638367 104.9609082 -133.19906616 104.77978516 C-89.18369759 97.03437235 -45.48751427 81.32749374 -18.76123047 43.234375 C-9.90323625 29.99953184 -4.27639685 15.27284589 0 0 Z " fill="#1CA6F5" transform="translate(767,388)"/>
<path d="M0 0 C0.99302124 -0.00744736 0.99302124 -0.00744736 2.00610352 -0.01504517 C4.21078519 -0.02972182 6.41539453 -0.03648368 8.62011719 -0.04199219 C10.15696209 -0.04774643 11.69380698 -0.05350413 13.23065186 -0.05926514 C16.46562026 -0.06979566 19.70056372 -0.07562247 22.93554688 -0.07910156 C27.04734475 -0.08454045 31.15880371 -0.10845916 35.27049637 -0.13707352 C38.45360201 -0.15587497 41.63662964 -0.16091506 44.81978607 -0.16243744 C46.33299326 -0.16543365 47.8462001 -0.17335745 49.35935211 -0.18662262 C62.87036209 -0.29644908 75.54216053 0.71569221 86.66699219 9.16113281 C92.69781885 15.19195947 93.15619699 22.40973395 93.17114258 30.54541016 C92.92556121 39.4379403 89.40338595 46.45402863 83.47949219 53.03613281 C75.53915245 60.1772261 65.80360014 63.42150904 55.66699219 66.16113281 C56.05628906 66.66 56.44558594 67.15886719 56.84667969 67.67285156 C60.00891241 71.73129309 63.1564133 75.79993 66.28100586 79.88745117 C66.69713135 80.43151611 67.11325684 80.97558105 67.54199219 81.53613281 C67.96134033 82.08470947 68.38068848 82.63328613 68.81274414 83.19848633 C72.40646021 87.87518377 76.14720212 92.411856 79.95214844 96.91894531 C81.66699219 99.16113281 81.66699219 99.16113281 82.66699219 102.16113281 C56.31267372 104.50968052 56.31267372 104.50968052 49.32861328 100.97900391 C45.75552887 97.79715543 43.81384195 93.71861381 41.81884766 89.43310547 C39.72102149 85.29525673 36.86604152 81.6862862 34.10449219 77.97363281 C33.56147461 77.21348877 33.01845703 76.45334473 32.45898438 75.67016602 C29.96409992 72.18298084 27.43081655 68.80812044 24.58496094 65.59863281 C24.11195557 65.06391357 23.6389502 64.52919434 23.15161133 63.97827148 C21.88765677 62.57950116 20.59479291 61.20700348 19.29980469 59.83691406 C17.66699219 57.16113281 17.66699219 57.16113281 17.84667969 53.39160156 C18.66699219 50.16113281 18.66699219 50.16113281 19.66699219 49.16113281 C21.75606259 49.05109202 23.84855707 49.00517771 25.94042969 48.98535156 C27.24109375 48.96150391 28.54175781 48.93765625 29.88183594 48.91308594 C31.94622285 48.87833113 34.01006667 48.84884371 36.07470703 48.83520508 C50.11450323 48.79169247 50.11450323 48.79169247 62.40722656 42.67919922 C66.04454834 38.52757349 67.09131038 34.63976988 67.01074219 29.16113281 C66.40620196 25.64380784 64.44236663 24.21249653 61.66699219 22.16113281 C56.4789629 19.93741143 51.66084915 19.82109221 46.11230469 19.74707031 C45.21075653 19.72770416 44.30920837 19.70833801 43.38034058 19.68838501 C40.51765223 19.62888986 37.65492301 19.58232464 34.79199219 19.53613281 C32.84405856 19.49792534 30.89614133 19.45887201 28.94824219 19.41894531 C24.18795961 19.32321316 19.42759799 19.23907165 14.66699219 19.16113281 C13.89374937 23.59821576 13.12333392 28.03578545 12.35449219 32.47363281 C12.23928223 33.13794312 12.12407227 33.80225342 12.00537109 34.48669434 C10.65460789 42.28466724 9.34700847 50.08520881 8.16699219 57.91113281 C6.57660684 68.353575 4.43441502 78.6887771 2.30541992 89.0324707 C1.41295496 93.40606097 0.54239947 97.78409642 -0.33300781 102.16113281 C-8.58300781 102.16113281 -16.83300781 102.16113281 -25.33300781 102.16113281 C-24.88094128 94.02393527 -23.89428104 86.41536925 -22.08300781 78.47363281 C-21.44731001 75.66596751 -20.89158285 72.87084733 -20.39550781 70.03613281 C-19.52878152 65.14582346 -18.56514982 60.27922623 -17.58300781 55.41113281 C-15.89364138 47.01594065 -14.23870729 38.61422786 -12.60583496 30.20788574 C-12.34445439 28.86312724 -12.08250881 27.51847842 -11.81994629 26.1739502 C-10.33867078 18.58508633 -8.93782543 10.99998562 -7.76708984 3.35644531 C-6.88433882 -1.10795133 -4.06948372 0.02311471 0 0 Z " fill="#42BFF7" transform="translate(222.3330078125,562.8388671875)"/>
<path d="M0 0 C6.19888098 5.18844068 9.06033379 11.00304905 10 19 C10.45422105 33.20860225 6.65676466 42.11874373 -2.23046875 53.1640625 C-2.81441406 53.76992188 -3.39835937 54.37578125 -4 55 C-4.66 55 -5.32 55 -6 55 C-6 55.66 -6 56.32 -6 57 C-21.09792041 68.31556039 -41.33631003 69.92815371 -59.53515625 67.53515625 C-69.66159286 65.32693975 -77.65438673 60.73838333 -83.66015625 52.203125 C-88.91086484 43.56930679 -88.14728484 30.99283858 -85.875 21.3671875 C-81.96859932 10.79897853 -72.90155097 2.84888217 -63.1875 -2.3125 C-44.6893912 -10.8197756 -17.16687765 -12.31298413 0 0 Z " fill="#3C97F3" transform="translate(499,599)"/>
<path d="M0 0 C4.11232707 3.65540184 6.11087169 7.57631728 7 13 C7.14259745 22.82139959 4.40789297 32.79749695 2.50976562 42.38476562 C2.03483921 44.82126551 1.58155068 47.26027136 1.140625 49.703125 C0.94509033 50.78170776 0.94509033 50.78170776 0.74560547 51.88208008 C0.39886038 53.80516762 0.05479962 55.72873862 -0.2890625 57.65234375 C-1 61 -1 61 -3 67 C-10.26 67 -17.52 67 -25 67 C-25.495 63.04 -25.495 63.04 -26 59 C-26.40089844 59.39832031 -26.80179688 59.79664063 -27.21484375 60.20703125 C-36.1874325 68.56923981 -47.11403262 69.31985601 -58.96875 69.21484375 C-68.13837448 68.85859145 -77.21017954 67.49461088 -84 61 C-87.55060123 56.73501354 -88.60168337 52.78049409 -88.3203125 47.265625 C-87.28715249 39.95790783 -84.11131711 34.29654584 -78.28515625 29.625 C-68.14847039 22.65991523 -56.94897342 22.56537718 -45.11889648 22.71875 C-42.67481269 22.75016307 -40.23137607 22.75976052 -37.78710938 22.765625 C-36.21613802 22.77478816 -34.64517316 22.78516173 -33.07421875 22.796875 C-32.35223801 22.80112488 -31.63025726 22.80537476 -30.88639832 22.80975342 C-26.82953771 22.86667088 -22.98203563 23.22237128 -19 24 C-18.77107976 20.96680679 -18.65588796 18.02711063 -19 15 C-21.34289589 12.32240469 -23.59879193 11.69813466 -27 11 C-28.66478559 10.9092993 -30.33274688 10.8693584 -32 10.8671875 C-33.44644897 10.86404541 -33.44644897 10.86404541 -34.92211914 10.86083984 C-35.93781982 10.8655127 -36.95352051 10.87018555 -38 10.875 C-39.55352173 10.88007568 -39.55352173 10.88007568 -41.13842773 10.88525391 C-54.81188943 10.84307286 -54.81188943 10.84307286 -68 14 C-69.32 14 -70.64 14 -72 14 C-71.85833643 12.08302063 -71.71150416 10.16642277 -71.5625 8.25 C-71.48128906 7.18265625 -71.40007813 6.1153125 -71.31640625 5.015625 C-71.21199219 4.02046875 -71.10757813 3.0253125 -71 2 C-70.94972656 1.25621094 -70.89945313 0.51242187 -70.84765625 -0.25390625 C-70 -2 -70 -2 -67.3046875 -3.23046875 C-66.17289063 -3.54628906 -65.04109375 -3.86210938 -63.875 -4.1875 C-62.75867188 -4.51105469 -61.64234375 -4.83460938 -60.4921875 -5.16796875 C-42.84010148 -9.3736671 -15.80229982 -10.43548102 0 0 Z " fill="#F9F9F9" transform="translate(805,598)"/>
<path d="M0 0 C8.25 0 16.5 0 25 0 C28.22404117 9.2115462 30.90129292 18.34377009 33.18310547 27.83007812 C34.70435253 34.06029283 36.56121795 40.0597264 39 46 C39.42667969 45.35417969 39.85335937 44.70835937 40.29296875 44.04296875 C43.52325616 39.17422628 46.77341978 34.32118552 50.07421875 29.5 C50.61119385 28.71383301 51.14816895 27.92766602 51.70141602 27.11767578 C52.82506251 25.48605256 53.95986962 23.86206386 55.10522461 22.24560547 C57.79809359 18.41310667 60.23170363 14.71223603 62.1796875 10.4453125 C66.10641196 2.32099057 66.10641196 2.32099057 70 0 C78.1891897 -1.78886008 86.73793296 -0.92063033 95 0 C93.84512483 3.10635286 92.67990435 5.70995497 90.63671875 8.3203125 C89.93482422 9.2318811 89.93482422 9.2318811 89.21875 10.16186523 C88.46078125 11.13361694 88.46078125 11.13361694 87.6875 12.125 C83.1063128 18.1113354 78.72889231 24.19739851 74.5 30.4375 C68.92217442 38.66304863 63.23539608 46.80239603 57.48388672 54.90722656 C54.98327152 58.43392506 52.49221792 61.9673652 50 65.5 C49.00522741 66.90886764 48.01043573 68.31772179 47.015625 69.7265625 C44.43946009 73.37584957 41.86528328 77.02651387 39.30053711 80.68383789 C38.27419275 82.13423006 37.236043 83.57634635 36.18579102 85.00952148 C33.90324066 88.14235414 32.01893784 90.95796266 30.41796875 94.51171875 C28.70375715 98.04417062 27.14461819 99.66085219 24 102 C20.91235352 102.60791016 20.91235352 102.60791016 17.50390625 102.6640625 C16.28388916 102.68782959 15.06387207 102.71159668 13.80688477 102.73608398 C8.19073095 102.66440986 2.60090832 102.4157651 -3 102 C0.94738029 95.92258444 5.11527857 90.09510106 9.5625 84.375 C11.20564641 82.25332323 12.84490206 80.13133969 14.45361328 77.98339844 C16 76 16 76 17.62060547 74.30566406 C19.1830527 72.55991877 20.18109241 71.19862241 21 69 C20.7528391 65.12076348 19.29068535 61.64204799 18 58 C17.26106552 55.62900425 16.54770935 53.2510015 15.83404541 50.87228394 C14.74105261 47.24014928 13.61681985 43.6179211 12.49414062 39.99487305 C11.63052842 37.20535709 10.77214381 34.4142684 9.9140625 31.62304688 C7.09879389 22.50437705 4.19347543 13.45686203 0.86083984 4.51293945 C0 2 0 2 0 0 Z " fill="#2EADF6" transform="translate(321,593)"/>
<path d="M0 0 C2.1875 0 2.1875 0 5 1 C10.86365403 8.39047807 11.74433574 14.68485712 11 24 C9.25010996 31.12961956 3.79140558 35.8619622 -2 40 C-18.5068041 49.79995791 -41.01373437 48.55623694 -59.37214971 48.44284701 C-62.84069433 48.42709861 -66.30914255 48.43838691 -69.7776947 48.44776917 C-80.03550117 48.47072631 -90.2931778 48.4523994 -100.55096436 48.42626953 C-108.57841495 48.40632292 -116.60553801 48.39768875 -124.63298887 48.42320591 C-128.74872705 48.43500331 -132.86352413 48.42342186 -136.97916424 48.3939532 C-140.12295023 48.37762366 -143.26660753 48.39339576 -146.41040039 48.40405273 C-147.54638672 48.38914291 -148.68237305 48.37423309 -149.8527832 48.35887146 C-152.65945659 48.38464167 -155.25042456 48.43777402 -158 49 C-160.30248347 51.20646723 -160.30248347 51.20646723 -161 54 C-161.35473389 54.85376221 -161.70946777 55.70752441 -162.07495117 56.5871582 C-162.39439697 57.48265381 -162.71384277 58.37814941 -163.04296875 59.30078125 C-163.39423828 60.27724609 -163.74550781 61.25371094 -164.10742188 62.25976562 C-164.46384766 63.26716797 -164.82027344 64.27457031 -165.1875 65.3125 C-165.55552734 66.33923828 -165.92355469 67.36597656 -166.30273438 68.42382812 C-167.20658335 70.94756227 -168.10549695 73.47294143 -169 76 C-169.66 76 -170.32 76 -171 76 C-171.15082031 77.23556641 -171.15082031 77.23556641 -171.3046875 78.49609375 C-171.96480547 81.82264329 -172.91365621 84.63411743 -174.18609619 87.75595093 C-177.13851763 95.00898885 -179.83971457 102.30314072 -182.2734375 109.74609375 C-182.88471493 111.59449799 -183.4965495 113.44271806 -184.10888672 115.29077148 C-184.42049744 116.23266327 -184.73210815 117.17455505 -185.05316162 118.14498901 C-187.50300796 125.53203454 -189.9960306 132.90297401 -192.55224609 140.25390625 C-193.19292349 142.11025334 -193.82453227 143.96975124 -194.44775391 145.83203125 C-195.37019882 148.58366683 -196.32236956 151.32338182 -197.28125 154.0625 C-197.55126831 154.88951416 -197.82128662 155.71652832 -198.0994873 156.56860352 C-200.12579082 162.21728163 -202.65810825 165.20717802 -208 168 C-211.4375 169.3125 -211.4375 169.3125 -214 170 C-213.76633679 167.89395659 -213.51199145 165.79020726 -213.25 163.6875 C-213.11078125 162.51574219 -212.9715625 161.34398437 -212.828125 160.13671875 C-211.94136311 154.85336791 -209.89158144 149.98963227 -208 145 C-207.13262739 142.59438576 -206.27097613 140.18670345 -205.4140625 137.77734375 C-205.18940811 137.14659943 -204.96475372 136.5158551 -204.73329163 135.86599731 C-204.02969369 133.89012714 -203.32722347 131.91385904 -202.625 129.9375 C-202.26183182 128.91627548 -202.26183182 128.91627548 -201.8913269 127.87442017 C-198.78331868 119.12829539 -195.74773583 110.36401852 -192.86035156 101.54223633 C-191.38699496 97.0693912 -189.74261599 92.70943842 -187.93359375 88.36328125 C-186.42560731 84.5459934 -185.20582646 80.63522861 -183.93359375 76.734375 C-183 74 -183 74 -181.5 70.5625 C-180.12150596 67.28857666 -179.08070038 64.08678376 -178.0625 60.6875 C-176.60818417 55.84718167 -174.97723943 51.17305734 -173.02734375 46.51171875 C-172.12302595 44.30078207 -171.27170402 42.08041031 -170.43579102 39.84301758 C-170.16662369 39.12318192 -169.89745636 38.40334625 -169.62013245 37.66169739 C-169.41548874 37.11333725 -169.21084503 36.56497711 -169 36 C-168.28346347 35.99761165 -167.56692694 35.99522329 -166.82867718 35.99276257 C-149.35821331 35.93351285 -131.88789606 35.85789932 -114.41758251 35.76428509 C-105.96891214 35.71940381 -97.52028319 35.67997164 -89.0715332 35.65356445 C-81.70381659 35.63052207 -74.33623194 35.59705487 -66.96862012 35.55129844 C-63.07094572 35.52744997 -59.17340133 35.50866654 -55.27565575 35.50238609 C-51.59921457 35.49629702 -47.92310569 35.47616124 -44.24678802 35.44572449 C-42.27012002 35.43287978 -40.29337414 35.43450369 -38.31666565 35.4367218 C-26.92510025 35.31784781 -14.31590412 33.33343258 -5.37109375 25.58984375 C-0.44915835 20.08021458 1.41883396 14.31339345 1.171875 7.08984375 C0.97287595 4.67019621 0.60684646 2.35153004 0 0 Z " fill="#40CBF6" transform="translate(537,314)"/>
<path d="M0 0 C4.90719383 -0.0750159 9.81404271 -0.1290041 14.72167969 -0.16479492 C16.38580145 -0.17973924 18.04988483 -0.20010223 19.71386719 -0.22631836 C45.0789922 -0.61549447 45.0789922 -0.61549447 54 7 C60.55549852 13.96745607 60.49542639 19.87918247 60.34765625 29.0703125 C60.0576421 35.43120859 58.15755421 40.50286523 55 46 C54.47599609 47.00740234 54.47599609 47.00740234 53.94140625 48.03515625 C50.52834432 53.72359281 44.79544937 57.06117284 39 60 C38.30962646 60.35884277 37.61925293 60.71768555 36.90795898 61.08740234 C27.43792097 65.29941296 17.44851463 64.43954177 7.3125 64.25 C5.43556598 64.22989983 3.55861112 64.2116553 1.68164062 64.1953125 C-2.87942806 64.15160563 -7.43947988 64.08277384 -12 64 C-11.44586421 56.14818897 -10.29241269 48.55423234 -8.75 40.83984375 C-8.53182617 39.72815323 -8.31365234 38.61646271 -8.08886719 37.47108459 C-7.63090874 35.1436922 -7.170263 32.81682708 -6.70703125 30.49047852 C-5.99600953 26.91744708 -5.29424339 23.342687 -4.59375 19.76757812 C-4.14637139 17.49989378 -3.69847354 15.2323118 -3.25 12.96484375 C-3.03956055 11.89411118 -2.82912109 10.8233786 -2.61230469 9.72019958 C-2.41540039 8.73479691 -2.21849609 7.74939423 -2.015625 6.73413086 C-1.84321289 5.86574081 -1.67080078 4.99735077 -1.49316406 4.10264587 C-1 2 -1 2 0 0 Z " fill="#0E121D" transform="translate(556,582)"/>
<path d="M0 0 C1.25831586 2.92160694 0.9793444 4.057489 -0.1171875 7.109375 C-0.68876621 8.3297454 -1.27579432 9.54295456 -1.875 10.75 C-2.19090088 11.40105713 -2.50680176 12.05211426 -2.83227539 12.72290039 C-3.86776829 14.82625319 -4.92885618 16.91459148 -6 19 C-6.53971436 20.05646729 -6.53971436 20.05646729 -7.09033203 21.13427734 C-10.99087343 28.67071144 -14.7281674 35.5445817 -21.109375 41.28515625 C-23.05699512 43.05169599 -24.69163429 44.919821 -26.375 46.9375 C-35.59291599 57.62524314 -46.54017567 65.56793729 -59 72 C-59.66773438 72.34804688 -60.33546875 72.69609375 -61.0234375 73.0546875 C-63.00265931 74.06517627 -64.99830932 75.03477193 -67 76 C-67.93070313 76.46277344 -68.86140625 76.92554688 -69.8203125 77.40234375 C-75.8863201 80.33101818 -81.95768777 82.79364584 -88.375 84.8125 C-89.35533203 85.12272095 -89.35533203 85.12272095 -90.35546875 85.43920898 C-93.43943249 86.37232785 -96.40903477 87.05811665 -99.6015625 87.51171875 C-102.94151402 87.88744364 -102.94151402 87.88744364 -105.78125 88.93359375 C-110.27603118 90.42276276 -114.84851655 91.20940366 -119.5 92.0625 C-120.42425781 92.23587891 -121.34851563 92.40925781 -122.30078125 92.58789062 C-124.86577374 93.06676261 -127.43235258 93.53560418 -130 94 C-131.67449219 94.30550781 -131.67449219 94.30550781 -133.3828125 94.6171875 C-136.96902287 95.14173767 -140.37955904 95.0624214 -144 95 C-144 95.66 -144 96.32 -144 97 C-156.45610808 99.1871871 -168.91695549 100.70674328 -181.5065918 101.90942383 C-183.26289917 102.07994263 -183.26289917 102.07994263 -185.0546875 102.25390625 C-186.59358643 102.39807983 -186.59358643 102.39807983 -188.16357422 102.54516602 C-191.45526149 102.9354176 -194.6933613 103.43607587 -197.96313477 103.97265625 C-205.46198963 105.14228236 -212.96707783 105.69005111 -220.53515625 106.18359375 C-222.01062637 106.28405825 -223.48605899 106.38507461 -224.9614563 106.48660278 C-228.06350453 106.69925742 -231.1657353 106.90887797 -234.26815796 107.11599731 C-241.51822873 107.60066039 -248.76693367 108.10514485 -256.01574898 108.60817528 C-258.38644673 108.77260583 -260.75717906 108.936531 -263.12791443 109.10041809 C-286.0055118 110.68462205 -308.82683376 112.57447447 -331.625 115.0625 C-332.38597992 115.14476837 -333.14695984 115.22703674 -333.93099976 115.3117981 C-341.12588391 116.09628457 -348.22232072 116.97134371 -355.30419922 118.49780273 C-361.7245773 119.69384672 -368.26196468 120.27533288 -374.75 121 C-377.68259308 121.33072415 -380.61483785 121.66438462 -383.546875 122 C-384.26073364 122.0810498 -384.97459229 122.16209961 -385.71008301 122.24560547 C-391.44797527 122.90811146 -397.15456758 123.73290117 -402.86035156 124.6328125 C-406.26536845 125.03103531 -409.57484427 125.06037416 -413 125 C-409.51543368 121.88270159 -405.74651694 120.85742604 -401.3125 119.75 C-400.50578857 119.54383057 -399.69907715 119.33766113 -398.86791992 119.12524414 C-368.47733727 111.54905098 -337.72150221 106.42650168 -306.66992188 102.46948242 C-304.18586748 102.15170457 -301.70280161 101.82611843 -299.22070312 101.4934082 C-288.66954229 100.1086013 -278.11092046 99.22284091 -267.5 98.4375 C-264.97917011 98.24875274 -262.45844154 98.05883225 -259.93786621 97.86671448 C-258.38862745 97.74883206 -256.83923821 97.63290256 -255.28967285 97.51939392 C-251.90264784 97.26349917 -248.56145763 96.94242726 -245.19140625 96.5 C-239.94843515 95.81935877 -234.68334074 95.5897876 -229.40625 95.31640625 C-227.13540824 95.19221118 -224.86457518 95.06785707 -222.59375 94.94335938 C-219.05740169 94.75262125 -215.52098015 94.56360291 -211.984375 94.37768555 C-200.22409083 93.75555729 -188.54040192 93.13399787 -176.87011719 91.50878906 C-173.22731145 91.02988374 -169.59404741 90.66700845 -165.93597412 90.33529663 C-153.93601404 89.23831307 -142.11468812 87.39698133 -130.25 85.3125 C-129.24319183 85.1367041 -128.23638367 84.9609082 -127.19906616 84.77978516 C-83.85431019 77.15238048 -40.98998749 61.91593068 -14 25 C-8.6414269 17.08051068 -4.0524896 8.65481448 0 0 Z " fill="#5FE0F5" transform="translate(761,408)"/>
<path d="M0 0 C5.22873516 -0.10893198 9.18497567 -0.10596504 14 2.12109375 C13.53001438 4.51602048 13.05356473 6.90927599 12.56640625 9.30078125 C12.20206105 11.11496905 11.85431219 12.93261099 11.52734375 14.75390625 C11.29724609 15.95660156 11.29724609 15.95660156 11.0625 17.18359375 C10.92972656 17.91707031 10.79695312 18.65054688 10.66015625 19.40625 C10.33337891 20.25509766 10.33337891 20.25509766 10 21.12109375 C7.13977563 22.07450187 5.55926666 22.20621843 2.61328125 22.11328125 C1.75669922 22.09652344 0.90011719 22.07976563 0.01757812 22.0625 C-1.76649872 22.01870317 -3.55039752 21.96679981 -5.33398438 21.90625 C-12.69880921 21.78524466 -19.10858987 22.92592179 -24.875 27.93359375 C-25.42929687 28.39378906 -25.98359375 28.85398437 -26.5546875 29.328125 C-29.60217511 33.10865693 -30.21373595 37.79809893 -30.8125 42.49609375 C-32.33954891 53.13577599 -34.76898276 63.61182831 -37 74.12109375 C-44.92 74.12109375 -52.84 74.12109375 -61 74.12109375 C-61 66.25294399 -61 66.25294399 -60.23046875 63.0625 C-60.06554932 62.35617432 -59.90062988 61.64984863 -59.73071289 60.92211914 C-59.46182251 59.81404907 -59.46182251 59.81404907 -59.1875 58.68359375 C-58.81306796 57.06948141 -58.4407058 55.45488765 -58.0703125 53.83984375 C-57.88629883 53.03933594 -57.70228516 52.23882813 -57.51269531 51.4140625 C-56.34534566 46.19323016 -55.41766816 40.92545963 -54.46240234 35.66259766 C-53.66837384 31.2983755 -52.86348482 26.93615957 -52.05834961 22.57397461 C-51.6084799 20.13625619 -51.16003721 17.69827391 -50.71313477 15.26000977 C-50.50615967 14.13651123 -50.29918457 13.0130127 -50.0859375 11.85546875 C-49.9007959 10.84709961 -49.7156543 9.83873047 -49.52490234 8.79980469 C-49.08578846 6.55889421 -48.55383693 4.33644145 -48 2.12109375 C-40.74 2.12109375 -33.48 2.12109375 -26 2.12109375 C-26 5.09109375 -26 8.06109375 -26 11.12109375 C-25.50371094 10.734375 -25.00742187 10.34765625 -24.49609375 9.94921875 C-16.42261321 3.760061 -10.32683389 0.41683835 0 0 Z " fill="#FBFBFB" transform="translate(708,590.87890625)"/>
<path d="M0 0 C3.5268157 3.61498609 5.16446464 6.37073645 5.375 11.375 C5.2815355 18.54061157 2.92274532 25.38913261 -1.609375 30.98828125 C-8.21294367 37.09203853 -15.86605058 38.52776201 -24.5625 38.5 C-25.37396484 38.52835938 -26.18542969 38.55671875 -27.02148438 38.5859375 C-32.9945083 38.60522087 -36.71359541 37.21162379 -41 33 C-44.84118639 27.87485158 -43.789446 20.03835798 -43 14 C-39.70641358 6.00806984 -34.95480883 1.06450368 -27 -2.25 C-18.53004258 -4.33925616 -7.76143749 -4.34230203 0 0 Z " fill="#0E131F" transform="translate(480,611)"/>
<path d="M0 0 C0.33 0 0.66 0 1 0 C1.67047742 4.10355363 2.33572962 8.2079374 3 12.3125 C3.19078125 13.47974609 3.3815625 14.64699219 3.578125 15.84960938 C3.84882812 17.52700195 3.84882812 17.52700195 4.125 19.23828125 C4.29257812 20.26993408 4.46015625 21.30158691 4.6328125 22.36450195 C5 25 5 25 5 28 C5.99 28 6.98 28 8 28 C8.33 28.99 8.66 29.98 9 31 C16.26 32.32 23.52 33.64 31 35 C31 35.33 31 35.66 31 36 C24.73148088 37.4005585 18.67248641 38.2757854 12.25 38.55859375 C11.5075 38.70425781 10.765 38.84992188 10 39 C9.34 39.99 8.68 40.98 8 42 C7.01 42 6.02 42 5 42 C3.36621869 54.99094071 2.49027073 67.91751255 2 81 C1.01 81.495 1.01 81.495 0 82 C-0.93941143 78.79038373 -1.16313386 75.83013587 -1.24609375 72.4921875 C-1.27896484 71.42226563 -1.31183594 70.35234375 -1.34570312 69.25 C-1.40626121 67.02352395 -1.46362276 64.79695835 -1.51757812 62.5703125 C-1.37668428 51.33205353 -1.37668428 51.33205353 -5.38964844 41.28540039 C-7.77931713 39.37794047 -10.22817983 38.98073359 -13.1875 38.3125 C-14.81751953 37.93544922 -14.81751953 37.93544922 -16.48046875 37.55078125 C-17.31191406 37.36902344 -18.14335938 37.18726563 -19 37 C-19 36.01 -19 35.02 -19 34 C-15.04 33.01 -11.08 32.02 -7 31 C-7 30.01 -7 29.02 -7 28 C-6.01 27.67 -5.02 27.34 -4 27 C-1.83308181 21.35540541 -1.40085603 15.54950024 -0.875 9.5625 C-0.78863281 8.64017578 -0.70226562 7.71785156 -0.61328125 6.76757812 C-0.4029346 4.51219459 -0.19865598 2.25643814 0 0 Z " fill="#F0F7FA" transform="translate(728,226)"/>
<path d="M0 0 C1.05904289 0.00212242 1.05904289 0.00212242 2.13948059 0.00428772 C4.39120751 0.00987861 6.64283446 0.02242937 8.89453125 0.03515625 C10.4225246 0.04017243 11.95051952 0.04473513 13.47851562 0.04882812 C17.2213926 0.05984505 20.96419498 0.07710338 24.70703125 0.09765625 C23.57918537 9.95623769 23.57918537 9.95623769 20.70703125 13.09765625 C14.03416238 16.35407581 7.2519286 16.58692649 -0.04296875 16.53515625 C-1.05746094 16.55513672 -2.07195313 16.57511719 -3.1171875 16.59570312 C-7.63197485 16.59273677 -10.50613347 16.54301656 -14.48828125 14.2890625 C-16.29296875 12.09765625 -16.29296875 12.09765625 -16.41796875 8.59765625 C-15.10828776 4.52309318 -13.8853478 3.32150995 -10.29296875 1.09765625 C-6.78672445 -0.07109185 -3.64518215 -0.02748642 0 0 Z " fill="#131622" transform="translate(758.29296875,634.90234375)"/>
<path d="M0 0 C1.10106079 0.00143509 1.10106079 0.00143509 2.22436523 0.00289917 C15.4549073 0.04309163 15.4549073 0.04309163 20.5625 1.25 C20.5625 1.58 20.5625 1.91 20.5625 2.25 C19.78390625 2.28738281 19.0053125 2.32476563 18.203125 2.36328125 C10.16743565 2.83542429 2.31646223 3.78712719 -5.62792969 5.05786133 C-10.73432184 5.86937904 -15.8429358 6.55281257 -20.9765625 7.171875 C-29.6708832 8.23171217 -38.30116057 9.61006998 -46.9375 11.0625 C-47.71587219 11.19250397 -48.49424438 11.32250793 -49.29620361 11.45645142 C-61.93108523 13.5724835 -74.48598765 15.96014323 -86.99902344 18.71386719 C-90.01420893 19.37679744 -93.03351154 20.01944505 -96.05322266 20.66137695 C-98.51579905 21.18560771 -100.97677971 21.71713275 -103.4375 22.25 C-101.12379168 19.62408382 -98.98637453 18.44538788 -95.74609375 17.1640625 C-94.34109619 16.6071875 -94.34109619 16.6071875 -92.90771484 16.0390625 C-91.90691895 15.65492188 -90.90612305 15.27078125 -89.875 14.875 C-88.85100098 14.47796875 -87.82700195 14.0809375 -86.77197266 13.671875 C-73.90923547 8.78015826 -60.69559965 4.42621694 -46.875 3.875 C-41.41581094 3.621672 -36.1482379 3.08572927 -30.77197266 2.10791016 C-20.48856838 0.25599401 -10.41812425 -0.02812882 0 0 Z " fill="#126DF2" transform="translate(402.4375,527.75)"/>
<path d="M0 0 C6.93 0.495 6.93 0.495 14 1 C14 1.33 14 1.66 14 2 C12.35 2 10.7 2 9 2 C9 2.99 9 3.98 9 5 C9.60328125 5.04898437 10.2065625 5.09796875 10.828125 5.1484375 C12.02695312 5.26058594 12.02695312 5.26058594 13.25 5.375 C14.03890625 5.44460938 14.8278125 5.51421875 15.640625 5.5859375 C18.085877 6.01507113 19.84836903 6.78600638 22 8 C22 8.66 22 9.32 22 10 C22.99 10.33 23.98 10.66 25 11 C26.40454548 17.11980533 27.23268915 22.71739294 27 29 C23.27432638 27.40828029 20.6447993 25.04731554 17.625 22.375 C7.62058263 13.80732942 -4.00141221 8.26183916 -16 3 C-16 2.67 -16 2.34 -16 2 C-10.72 2 -5.44 2 0 2 C0 1.34 0 0.68 0 0 Z " fill="#305B86" transform="translate(700,258)"/>
<path d="M0 0 C0.33 0 0.66 0 1 0 C1 2.31 1 4.62 1 7 C3.47266765 6.65555119 3.47266765 6.65555119 6 6 C6.33 5.34 6.66 4.68 7 4 C12.44822952 2.08597069 18.73327109 2.33670731 24.4375 1.9375 C25.64599609 1.84662109 26.85449219 1.75574219 28.09960938 1.66210938 C53.20422295 -0.12627499 53.20422295 -0.12627499 65 3 C64.67 4.98 64.34 6.96 64 9 C42.22 9 20.44 9 -2 9 C-1.34 6.03 -0.68 3.06 0 0 Z " fill="#1988F2" transform="translate(323,476)"/>
<path d="M0 0 C0.65266846 0.05986084 1.30533691 0.11972168 1.9777832 0.18139648 C9.04610581 0.82715374 16.11621017 1.45016894 23.1875 2.0625 C24.23486328 2.15337891 25.28222656 2.24425781 26.36132812 2.33789062 C28.90753475 2.5587944 31.45375883 2.77949481 34 3 C30.24136497 5.06510556 27.55846226 5.21116925 23.25 5.125 C22.07953125 5.10695313 20.9090625 5.08890625 19.703125 5.0703125 C18.36507812 5.03550781 18.36507812 5.03550781 17 5 C17 5.66 17 6.32 17 7 C16.401875 7.12375 15.80375 7.2475 15.1875 7.375 C12.73768652 7.95475985 12.73768652 7.95475985 10 10 C10.33 8.68 10.66 7.36 11 6 C10.34 6 9.68 6 9 6 C8.731875 6.53625 8.46375 7.0725 8.1875 7.625 C7.27491439 9.45017122 6.3314631 11.25993493 5.375 13.0625 C3.78802995 15.91228133 3.78802995 15.91228133 4 19 C4 19.99 4 20.98 4 22 C3.46890625 21.48308594 2.9378125 20.96617187 2.390625 20.43359375 C1.68421875 19.77488281 0.9778125 19.11617188 0.25 18.4375 C-0.79414062 17.44556641 -0.79414062 17.44556641 -1.859375 16.43359375 C-3.89019298 14.7346044 -3.89019298 14.7346044 -6.265625 15.28515625 C-6.83796875 15.52105469 -7.4103125 15.75695312 -8 16 C-9.61985203 22.117834 -10.22828899 27.68400461 -10 34 C-10 34.99 -10 35.98 -10 37 C-11.51171875 35.9453125 -11.51171875 35.9453125 -13 34 C-13.14453125 30.7421875 -13.14453125 30.7421875 -12.8125 26.875 C-12.72947632 25.87327759 -12.72947632 25.87327759 -12.64477539 24.85131836 C-12.18143023 19.76190553 -11.29864407 14.93484745 -10 10 C-9.01 10 -8.02 10 -7 10 C-6.83757813 9.36578125 -6.67515625 8.7315625 -6.5078125 8.078125 C-5 6 -5 6 -1.3046875 5.171875 C0.16996395 5.01245322 1.64682699 4.87254284 3.125 4.75 C4.25615234 4.63398438 4.25615234 4.63398438 5.41015625 4.515625 C7.27182671 4.32710141 9.13577938 4.16136762 11 4 C9.34623289 2.34623289 7.19051636 2.36528792 4.9375 1.9375 C4.01839844 1.76089844 3.09929688 1.58429688 2.15234375 1.40234375 C1.44207031 1.26957031 0.73179687 1.13679688 0 1 C0 0.67 0 0.34 0 0 Z " fill="#275887" transform="translate(743,258)"/>
<path d="M0 0 C1.2375 0.350625 2.475 0.70125 3.75 1.0625 C4.8225 1.371875 5.895 1.68125 7 2 C7 2.33 7 2.66 7 3 C5.96182129 3.20157715 4.92364258 3.4031543 3.85400391 3.61083984 C-0.04123291 4.36723246 -3.93639806 5.1239936 -7.83154297 5.88085938 C-9.50925817 6.20680443 -11.18699214 6.53265292 -12.86474609 6.85839844 C-29.7684137 10.12552025 -29.7684137 10.12552025 -46.625 13.625 C-47.83414062 13.88539063 -49.04328125 14.14578125 -50.2890625 14.4140625 C-51.18367188 14.60742188 -52.07828125 14.80078125 -53 15 C-49.30874942 10.79251695 -44.22763955 9.41660066 -39.125 7.4375 C-38.08448486 7.03200928 -37.04396973 6.62651855 -35.97192383 6.20874023 C-28.56183959 3.40447186 -21.88384974 1.76585969 -14 1 C-11.36161862 0.46655677 -8.74166561 -0.11620317 -6.12109375 -0.73046875 C-3.75173907 -1.03154697 -2.26488808 -0.71427608 0 0 Z " fill="#0A56CB" transform="translate(352,535)"/>
<path d="M0 0 C2.08071366 0.36924582 4.16431713 0.72244301 6.25 1.0625 C7.32765625 1.23910156 8.4053125 1.41570313 9.515625 1.59765625 C10.74539063 1.79681641 10.74539063 1.79681641 12 2 C12 2.33 12 2.66 12 3 C-1.67771099 4.68711854 -15.23415474 5.19994714 -29 5.1875 C-29.79643921 5.1882251 -30.59287842 5.1889502 -31.41345215 5.18969727 C-33.71322293 5.18946043 -36.01276728 5.18070286 -38.3125 5.16796875 C-38.99926819 5.16677536 -39.68603638 5.16558197 -40.39361572 5.16435242 C-44.35906008 5.12592185 -48.107831 4.75618206 -52 4 C-52 3.67 -52 3.34 -52 3 C-50.58847656 2.80083984 -50.58847656 2.80083984 -49.1484375 2.59765625 C-47.90320313 2.42105469 -46.65796875 2.24445312 -45.375 2.0625 C-43.53035156 1.80146484 -43.53035156 1.80146484 -41.6484375 1.53515625 C-39.45570695 1.21352447 -37.26619646 0.86622348 -35.0859375 0.46875 C-31.14531484 -0.12982559 -27.22809571 -0.3597998 -23.25 -0.5625 C-22.4544873 -0.6042334 -21.65897461 -0.6459668 -20.83935547 -0.68896484 C-5.54805509 -1.45306205 -5.54805509 -1.45306205 0 0 Z " fill="#1489EF" transform="translate(445,524)"/>
<path d="M0 0 C0.33 0 0.66 0 1 0 C0.28956732 18.43572807 -5.02970153 40.81760985 -16 56 C-16.7425 56.144375 -17.485 56.28875 -18.25 56.4375 C-22.4460503 57.29578302 -24.94358127 60.11974373 -28 63 C-26.69048977 60.14844969 -25.55537456 58.51302928 -23.375 56.125 C-14.8353515 46.35647525 -5.93680232 30.50554246 -5.34375 17.5078125 C-4.51957238 11.4950621 -2.03340387 5.69503151 0 0 Z " fill="#0B70F5" transform="translate(767,388)"/>
<path d="M0 0 C21.90616298 -0.07025201 43.81230723 -0.12306724 65.71856022 -0.15543652 C75.89126934 -0.17086928 86.06390823 -0.19188973 96.23657227 -0.22631836 C105.10873875 -0.25633109 113.98085435 -0.27560106 122.8530702 -0.28226548 C127.54569169 -0.28615772 132.23816766 -0.29522919 136.93074226 -0.31719017 C141.35892815 -0.33774346 145.78691033 -0.34379625 150.21513939 -0.33932304 C151.82947018 -0.3401399 153.44380869 -0.34599229 155.05809784 -0.35761642 C165.43696933 -0.42860689 174.88632721 0.5620635 185 3 C181.91115873 4.81023595 181.3609636 5.08853824 177.6875 4.1875 C176.470625 3.795625 175.25375 3.40375 174 3 C169.23020074 2.17630091 164.65452201 1.87610645 159.81825256 1.87974548 C158.78635124 1.87846385 158.78635124 1.87846385 157.73360342 1.87715632 C155.44745646 1.87552002 153.16138424 1.88099233 150.87524414 1.88647461 C149.22891237 1.88675691 147.58258048 1.88659791 145.93624878 1.8860321 C141.48018275 1.88574579 137.02414376 1.89161569 132.568084 1.89860606 C127.90626619 1.90486725 123.24444771 1.90544559 118.58262634 1.90663147 C109.76073604 1.90973663 100.93885817 1.91793904 92.11697334 1.92798096 C82.07105463 1.9391674 72.02513532 1.94465892 61.97921193 1.94967639 C41.31946769 1.96012233 20.65973463 1.977706 0 2 C0 1.34 0 0.68 0 0 Z " fill="#44A2AE" transform="translate(352,251)"/>
<path d="M0 0 C8.90230739 -0.06992794 17.80451826 -0.12302626 26.70704174 -0.15543652 C30.84214766 -0.17100243 34.9770638 -0.19207174 39.11206055 -0.22631836 C43.11267742 -0.25923955 47.11311334 -0.27692098 51.11385536 -0.28463173 C52.62986405 -0.29011713 54.14586437 -0.30082616 55.66179466 -0.31719017 C66.88844319 -0.43340883 78.29840329 -0.33021555 88 6 C86 7 86 7 84.00390625 6.51171875 C82.39970927 5.97014185 80.79554171 5.42847784 79.19140625 4.88671875 C69.60423153 2.22296274 60.28066308 1.67409952 50.36328125 1.5859375 C48.98893635 1.5671792 47.6146024 1.54760252 46.24028015 1.5272522 C42.66153489 1.47641625 39.08275248 1.43653445 35.50384521 1.39910889 C31.83645816 1.35876079 28.16921907 1.30781076 24.50195312 1.2578125 C17.33473776 1.16162983 10.16744939 1.0770451 3 1 C3 1.99 3 2.98 3 4 C4.17095215 3.98952637 5.3419043 3.97905273 6.54833984 3.96826172 C10.88310705 3.93212503 15.21786089 3.90912267 19.55273438 3.89013672 C21.43068682 3.88006466 23.30862353 3.86640638 25.18652344 3.84912109 C27.8822009 3.82492547 30.57767146 3.81352917 33.2734375 3.8046875 C34.11619232 3.79436493 34.95894714 3.78404236 35.82723999 3.77340698 C37.88621247 3.77300856 39.94467935 3.87742412 42 4 C42.66 4.66 43.32 5.32 44 6 C38.21590487 6.02470049 32.43184038 6.04286023 26.64770508 6.05493164 C24.67960068 6.0599635 22.71150003 6.06678958 20.7434082 6.07543945 C17.91616899 6.08755517 15.08897916 6.09323976 12.26171875 6.09765625 C10.93970711 6.10539818 10.93970711 6.10539818 9.59098816 6.11329651 C8.77036392 6.11337204 7.94973969 6.11344757 7.10424805 6.11352539 C6.02169991 6.11685631 6.02169991 6.11685631 4.9172821 6.12025452 C3 6 3 6 0 5 C0 3.35 0 1.7 0 0 Z " fill="#A7E4F0" transform="translate(216,563)"/>
<path d="M0 0 C0.495 0.99 0.495 0.99 1 2 C-9.64961451 27.00529487 -35.13668092 43.9867568 -58.9375 54.75 C-60.0824292 55.27134521 -60.0824292 55.27134521 -61.25048828 55.80322266 C-66.61992859 58.12669047 -66.61992859 58.12669047 -70 57 C-66.93093271 54.95395514 -63.86450248 53.51892742 -60.43359375 52.21875 C-55.05338305 50.08973494 -50.00141923 47.54112118 -44.9375 44.75 C-43.62217285 44.02538574 -43.62217285 44.02538574 -42.28027344 43.28613281 C-36.12112467 39.81168216 -30.98017703 36.03442732 -26 31 C-24.69282324 29.91024944 -23.38022984 28.82696584 -22.0625 27.75 C-15.72566525 22.22753759 -6.30251762 13.32651413 -4.5625 4.875 C-3.7770099 2.25669967 -2.24025983 1.44532892 0 0 Z " fill="#3986E6" transform="translate(740,410)"/>
<path d="M0 0 C6.64449243 1.89842641 10.95984077 4.53862059 15.0078125 10.11328125 C17.11461026 12.54520042 18.33672334 13.82046252 21.46411133 14.66699219 C24.32593162 14.8260544 27.07738603 14.74786243 29.9375 14.5625 C31.44872437 14.51222656 31.44872437 14.51222656 32.99047852 14.4609375 C35.9975196 14.35005241 38.99654304 14.18241049 42 14 C43.68745319 13.91443634 45.37495 13.82972634 47.0625 13.74609375 C50.71294771 13.55027373 54.35614987 13.29616198 58 13 C54.82627286 15.11581809 53.08204054 15.49302122 49.37109375 16.0703125 C48.25283203 16.24433594 47.13457031 16.41835938 45.98242188 16.59765625 C44.81259766 16.77167969 43.64277344 16.94570313 42.4375 17.125 C41.29474609 17.30675781 40.15199219 17.48851562 38.97460938 17.67578125 C35.6542116 18.18077028 32.33616235 18.61369137 29 19 C28.07179443 19.11593506 27.14358887 19.23187012 26.18725586 19.35131836 C22.61921279 19.60654173 20.09163896 19.67484586 16.99536133 17.76074219 C15.06486877 16.04959497 13.38044263 14.25812064 11.6875 12.3125 C11.10677734 11.68666016 10.52605469 11.06082031 9.92773438 10.41601562 C8.79628692 9.19507515 7.67456573 7.96503098 6.56396484 6.72509766 C4.4546125 4.39842209 2.24124871 2.19919902 0 0 Z " fill="#8AB7F3" transform="translate(594,460)"/>
<path d="M0 0 C1.25831586 2.92160694 0.9793444 4.057489 -0.1171875 7.109375 C-0.68877498 8.32974129 -1.27579523 9.54295411 -1.875 10.75 C-2.19017578 11.39960693 -2.50535156 12.04921387 -2.83007812 12.71850586 C-3.86627175 14.82333704 -4.92820098 16.91308822 -6 19 C-6.36512695 19.71494629 -6.73025391 20.42989258 -7.10644531 21.16650391 C-14.84581911 36.12906833 -14.84581911 36.12906833 -22 41 C-22 40.34 -22 39.68 -22 39 C-22.99 38.67 -23.98 38.34 -25 38 C-24.31035156 37.23558594 -23.62070312 36.47117187 -22.91015625 35.68359375 C-13.33401497 24.85176167 -6.12938909 13.09040383 0 0 Z " fill="#32C4E8" transform="translate(761,408)"/>
<path d="M0 0 C7.56844829 3.66955068 12.35754253 11.24733459 17 18 C16.34 18 15.68 18 15 18 C15.33 19.65 15.66 21.3 16 23 C10.9663614 18.83201899 6.45586145 14.45719319 2.0625 9.625 C1.47404297 8.98433594 0.88558594 8.34367187 0.27929688 7.68359375 C-1.1507253 6.12568342 -2.57588609 4.56331302 -4 3 C-2.68 2.01 -1.36 1.02 0 0 Z " fill="#1C91F4" transform="translate(482,446)"/>
<path d="M0 0 C1.64452148 0.0009668 1.64452148 0.0009668 3.32226562 0.00195312 C8.0568525 0.02791978 12.42983886 0.1347418 17.0625 1.1875 C17.0625 1.5175 17.0625 1.8475 17.0625 2.1875 C16.28390625 2.22488281 15.5053125 2.26226563 14.703125 2.30078125 C6.44929175 2.7857415 -1.59351011 3.79451184 -9.74316406 5.17114258 C-15.21524167 6.06027281 -20.39209907 6.31542801 -25.9375 6.1875 C-25.6075 4.8675 -25.2775 3.5475 -24.9375 2.1875 C-16.55033957 0.52214527 -8.54129691 -0.09782076 0 0 Z " fill="#0F68E5" transform="translate(405.9375,527.8125)"/>
<path d="M0 0 C0.65266846 0.05986084 1.30533691 0.11972168 1.9777832 0.18139648 C9.04610581 0.82715374 16.11621017 1.45016894 23.1875 2.0625 C24.23486328 2.15337891 25.28222656 2.24425781 26.36132812 2.33789062 C28.90753475 2.5587944 31.45375883 2.77949481 34 3 C30.24136497 5.06510556 27.55846226 5.21116925 23.25 5.125 C22.07953125 5.10695313 20.9090625 5.08890625 19.703125 5.0703125 C18.36507812 5.03550781 18.36507812 5.03550781 17 5 C17 5.66 17 6.32 17 7 C16.401875 7.12375 15.80375 7.2475 15.1875 7.375 C12.73768652 7.95475985 12.73768652 7.95475985 10 10 C10.33 8.68 10.66 7.36 11 6 C10.34 6 9.68 6 9 6 C8.731875 6.53625 8.46375 7.0725 8.1875 7.625 C7.27491439 9.45017122 6.3314631 11.25993493 5.375 13.0625 C3.78802995 15.91228133 3.78802995 15.91228133 4 19 C4 19.99 4 20.98 4 22 C1.9375 20.25 1.9375 20.25 0 18 C0.18632447 14.92564622 1.24914064 13.62628904 3 11 C3.38499891 9.34450469 3.72793135 7.6777567 4 6 C6.31 5.34 8.62 4.68 11 4 C9.34623289 2.34623289 7.19051636 2.36528792 4.9375 1.9375 C4.01839844 1.76089844 3.09929688 1.58429688 2.15234375 1.40234375 C1.44207031 1.26957031 0.73179687 1.13679688 0 1 C0 0.67 0 0.34 0 0 Z " fill="#214C75" transform="translate(743,258)"/>
<path d="M0 0 C0.99 0.495 0.99 0.495 2 1 C2.33 7.27 2.66 13.54 3 20 C3.66 20 4.32 20 5 20 C4.67 23.63 4.34 27.26 4 31 C4.66 31 5.32 31 6 31 C6.33 33.97 6.66 36.94 7 40 C7.53109375 39.59007812 8.0621875 39.18015625 8.609375 38.7578125 C9.31578125 38.21898437 10.0221875 37.68015625 10.75 37.125 C11.44609375 36.59132812 12.1421875 36.05765625 12.859375 35.5078125 C14.84722603 34.10761086 16.79843386 33.02144735 19 32 C17.89824464 34.47894956 16.733707 36.3245446 15 38.4375 C13.06299991 40.91928137 12.01429561 43.04163782 11 46 C10.01 45.67 9.02 45.34 8 45 C8 44.01 8 43.02 8 42 C7.01 42 6.02 42 5 42 C3.45533033 36.15711909 2.28134245 30.34933146 1.375 24.375 C1.24311279 23.5077832 1.11122559 22.64056641 0.9753418 21.74707031 C-0.06692895 14.44645895 -0.32977112 7.37710199 0 0 Z " fill="#1A6B8E" transform="translate(728,212)"/>
<path d="M0 0 C1.5056904 5.80766296 2.21824777 10.9981863 2 17 C-1.23861303 15.55575365 -3.61969163 13.74227753 -6.25 11.375 C-6.95640625 10.74335938 -7.6628125 10.11171875 -8.390625 9.4609375 C-8.92171875 8.97882813 -9.4528125 8.49671875 -10 8 C-7.60299553 2.95144191 -5.92969204 0 0 0 Z " fill="#27507D" transform="translate(725,270)"/>
<path d="M0 0 C0.33 0 0.66 0 1 0 C1.40195304 6.43124858 0.72643749 11.12767309 -2 17 C-2.66 17.33 -3.32 17.66 -4 18 C-4.33 18.99 -4.66 19.98 -5 21 C-6.98 21.33 -8.96 21.66 -11 22 C-10.01 21.67 -9.02 21.34 -8 21 C-7.49620971 18.71305777 -7.49620971 18.71305777 -8 16 C-9.96185416 14.28859531 -11.96302383 12.62126675 -14 11 C-14.875 8.6875 -14.875 8.6875 -15 7 C-14.34 7 -13.68 7 -13 7 C-13 7.66 -13 8.32 -13 9 C-11.02 8.34 -9.04 7.68 -7 7 C-7.33 8.65 -7.66 10.3 -8 12 C-7.67 11.67 -7.34 11.34 -7 11 C-2.27272727 7 -2.27272727 7 0 7 C0 4.69 0 2.38 0 0 Z " fill="#285D8E" transform="translate(726,237)"/>
<path d="M0 0 C1.2375 0.350625 2.475 0.70125 3.75 1.0625 C4.8225 1.371875 5.895 1.68125 7 2 C7 2.33 7 2.66 7 3 C3.48108123 3.67704411 -0.04039577 4.33974487 -3.5625 5 C-4.55314453 5.19078125 -5.54378906 5.3815625 -6.56445312 5.578125 C-11.80072959 6.55231597 -16.67372578 7.23904737 -22 7 C-21.34 6.67 -20.68 6.34 -20 6 C-20 5.34 -20 4.68 -20 4 C-21.98 4.33 -23.96 4.66 -26 5 C-25.67 4.34 -25.34 3.68 -25 3 C-23.28173828 2.51342773 -23.28173828 2.51342773 -21.0703125 2.18359375 C-20.27496094 2.05919922 -19.47960937 1.93480469 -18.66015625 1.80664062 C-17.82355469 1.68482422 -16.98695313 1.56300781 -16.125 1.4375 C-14.48145314 1.18828411 -12.83820899 0.93706162 -11.1953125 0.68359375 C-10.46328613 0.57587646 -9.73125977 0.46815918 -8.97705078 0.35717773 C-2.60096228 -0.79473848 -2.60096228 -0.79473848 0 0 Z " fill="#0C5AEB" transform="translate(352,535)"/>
<path d="M0 0 C0.66 0 1.32 0 2 0 C2.25523437 0.95712891 2.25523437 0.95712891 2.515625 1.93359375 C2.75796875 2.75988281 3.0003125 3.58617187 3.25 4.4375 C3.48203125 5.26121094 3.7140625 6.08492188 3.953125 6.93359375 C4.80770679 9.19995468 4.80770679 9.19995468 7.109375 9.78515625 C7.73328125 9.85605469 8.3571875 9.92695313 9 10 C6 12 6 12 2 12 C1.67 13.32 1.34 14.64 1 16 C0.505 15.525625 0.01 15.05125 -0.5 14.5625 C-3.99468651 12.37832093 -6.90966936 12.34086089 -11 12 C-11 11.34 -11 10.68 -11 10 C-10.113125 9.835 -9.22625 9.67 -8.3125 9.5 C-4.17932704 7.62837451 -3.15838072 5.57669989 -1.078125 1.6796875 C-0.54445313 0.84824219 -0.54445313 0.84824219 0 0 Z " fill="#19314B" transform="translate(762,473)"/>
<path d="M0 0 C4.71189979 2.6743215 4.71189979 2.6743215 6.4375 4.625 C8.72792572 6.64057463 11.03574786 6.67063865 14 7 C14 7.66 14 8.32 14 9 C12.783125 9.103125 11.56625 9.20625 10.3125 9.3125 C7.265074 9.66722684 5.94523585 10.03360528 3.25 11.6875 C2.5075 12.120625 1.765 12.55375 1 13 C-1.3125 12.1875 -1.3125 12.1875 -3 11 C-3 10.34 -3 9.68 -3 9 C-4.32 9 -5.64 9 -7 9 C-7 8.34 -7 7.68 -7 7 C-6.360625 6.71125 -5.72125 6.4225 -5.0625 6.125 C-2.84793921 5.17176549 -2.84793921 5.17176549 -2 3 C-1.34 3 -0.68 3 0 3 C0 2.01 0 1.02 0 0 Z " fill="#2C5A83" transform="translate(321,343)"/>
<path d="M0 0 C1.25 2.0625 1.25 2.0625 2 4 C-1.51973999 4.50790159 -5.04094042 5.00488523 -8.5625 5.5 C-9.55314453 5.64308594 -10.54378906 5.78617188 -11.56445312 5.93359375 C-16.76467588 6.65920623 -21.74952418 7.17673411 -27 7 C-23.15989655 3.37323563 -18.47223483 2.51743241 -13.5 1.25 C-12.64535156 1.01667969 -11.79070312 0.78335938 -10.91015625 0.54296875 C-10.08386719 0.32769531 -9.25757813 0.11242187 -8.40625 -0.109375 C-7.28186523 -0.40279785 -7.28186523 -0.40279785 -6.13476562 -0.70214844 C-3.68900866 -1.04339083 -2.26937621 -0.98850865 0 0 Z " fill="#3DCFF1" transform="translate(375,526)"/>
<path d="M0 0 C6.93 0.495 6.93 0.495 14 1 C14 1.33 14 1.66 14 2 C12.35 2 10.7 2 9 2 C9 2.99 9 3.98 9 5 C10.98 5 12.96 5 15 5 C15 5.33 15 5.66 15 6 C11.14597871 6.08770383 7.29221709 6.14062735 3.4375 6.1875 C2.35146484 6.21263672 1.26542969 6.23777344 0.14648438 6.26367188 C-6.04846255 6.32016075 -10.53039208 5.98984306 -16 3 C-16 2.67 -16 2.34 -16 2 C-10.72 2 -5.44 2 0 2 C0 1.34 0 0.68 0 0 Z " fill="#43A4B9" transform="translate(700,258)"/>
<path d="M0 0 C0.99 0.33 1.98 0.66 3 1 C3 1.66 3 2.32 3 3 C-24.39 3 -51.78 3 -80 3 C-80.33 2.34 -80.66 1.68 -81 1 C-79.49996178 1.00333092 -79.49996178 1.00333092 -77.96961975 1.00672913 C-68.56631661 1.02696068 -59.16301785 1.0419722 -49.75969791 1.05181217 C-44.92483173 1.05704097 -40.08998306 1.06413854 -35.25512695 1.07543945 C-30.5932288 1.08626847 -25.93134754 1.09227686 -21.26943779 1.09487724 C-19.48675712 1.09673147 -17.70407741 1.10035203 -15.92140388 1.10573006 C-13.4333404 1.11294069 -10.94534757 1.11399093 -8.45727539 1.11352539 C-7.71281158 1.11712067 -6.96834778 1.12071594 -6.20132446 1.12442017 C-2.81432117 1.41980997 -2.81432117 1.41980997 0 0 Z " fill="#1667E8" transform="translate(592,482)"/>
<path d="M0 0 C0.99 0.33 1.98 0.66 3 1 C3 1.99 3 2.98 3 4 C4.17095215 3.98952637 5.3419043 3.97905273 6.54833984 3.96826172 C10.88310705 3.93212503 15.21786089 3.90912267 19.55273438 3.89013672 C21.43068682 3.88006466 23.30862353 3.86640638 25.18652344 3.84912109 C27.8822009 3.82492547 30.57767146 3.81352917 33.2734375 3.8046875 C34.11619232 3.79436493 34.95894714 3.78404236 35.82723999 3.77340698 C37.88621247 3.77300856 39.94467935 3.87742412 42 4 C42.66 4.66 43.32 5.32 44 6 C38.21590487 6.02470049 32.43184038 6.04286023 26.64770508 6.05493164 C24.67960068 6.0599635 22.71150003 6.06678958 20.7434082 6.07543945 C17.91616899 6.08755517 15.08897916 6.09323976 12.26171875 6.09765625 C10.93970711 6.10539818 10.93970711 6.10539818 9.59098816 6.11329651 C8.77036392 6.11337204 7.94973969 6.11344757 7.10424805 6.11352539 C6.02169991 6.11685631 6.02169991 6.11685631 4.9172821 6.12025452 C3 6 3 6 0 5 C0 3.35 0 1.7 0 0 Z " fill="#92E8FB" transform="translate(216,563)"/>
<path d="M0 0 C0.33 1.32 0.66 2.64 1 4 C1.66 4 2.32 4 3 4 C3.33 3.34 3.66 2.68 4 2 C4.15245183 10.30015524 4.22761278 18.77731066 3 27 C2.34 27.33 1.68 27.66 1 28 C-0.10704654 23.9274483 -0.37828081 19.88535438 -0.625 15.6875 C-0.6765625 14.95337891 -0.728125 14.21925781 -0.78125 13.46289062 C-1.0624004 8.80323616 -0.81393228 4.59810996 0 0 Z " fill="#DAF9FD" transform="translate(727,280)"/>
<path d="M0 0 C0.66 0.66 1.32 1.32 2 2 C1.12687345 3.98928833 0.22566107 5.96626817 -0.6875 7.9375 C-1.18636719 9.03964844 -1.68523438 10.14179688 -2.19921875 11.27734375 C-4 14 -4 14 -6.46875 14.6875 C-7.72171875 14.8421875 -7.72171875 14.8421875 -9 15 C-11.05083596 16.36460228 -11.05083596 16.36460228 -12.8125 18.0625 C-13.41707031 18.61035156 -14.02164063 19.15820312 -14.64453125 19.72265625 C-15.31548828 20.35494141 -15.31548828 20.35494141 -16 21 C-14.32792152 17.33428949 -12.12684747 14.73953221 -9.4375 11.78125 C-7.95203681 9.94056736 -7.05235552 8.10893737 -6 6 C-4.37347684 4.29413425 -2.70993434 2.6222454 -1 1 C-0.67 0.67 -0.34 0.34 0 0 Z " fill="#0A54ED" transform="translate(755,430)"/>
<path d="M0 0 C2.66735273 2.48952921 4.55746343 4.63408134 6 8 C5.34 8 4.68 8 4 8 C4 8.66 4 9.32 4 10 C2.3125 11.1875 2.3125 11.1875 0 12 C-2.75 10.625 -2.75 10.625 -5 9 C-4.5206753 4.68607774 -3.2542015 2.83430453 0 0 Z " fill="#6AAED6" transform="translate(795,319)"/>
<path d="M0 0 C0.66 0.33 1.32 0.66 2 1 C1.88260541 2.47978969 1.75553868 3.95881184 1.625 5.4375 C1.55539063 6.26121094 1.48578125 7.08492187 1.4140625 7.93359375 C0.86270339 12.01677207 -0.06050086 15.99084474 -1 20 C2.45831586 20.02894547 5.91660072 20.04678 9.375 20.0625 C10.85226563 20.07506836 10.85226563 20.07506836 12.359375 20.08789062 C13.30039063 20.09111328 14.24140625 20.09433594 15.2109375 20.09765625 C16.08024902 20.10289307 16.94956055 20.10812988 17.84521484 20.11352539 C20.05049994 20.14122351 20.05049994 20.14122351 22 19 C22 19.99 22 20.98 22 22 C13.75 22 5.5 22 -3 22 C-2.52189864 14.43006181 -1.86826352 7.34850316 0 0 Z " fill="#108DE7" transform="translate(200,643)"/>
<path d="M0 0 C0.33 0 0.66 0 1 0 C0.61411174 10.01380022 -1.53864982 19.33776952 -4 29 C-4.33 29 -4.66 29 -5 29 C-7.54892498 18.47989146 -3.69148852 9.72626976 0 0 Z " fill="#0F74CD" transform="translate(767,388)"/>
<path d="M0 0 C3.61032268 1.20344089 3.98859218 2.15392526 5.9375 5.3125 C8.01024689 8.65653164 9.95088736 11.48379241 13 14 C15.98687874 14.63914976 15.98687874 14.63914976 19.296875 14.609375 C20.50214844 14.64160156 21.70742188 14.67382812 22.94921875 14.70703125 C24.20347656 14.72121094 25.45773437 14.73539063 26.75 14.75 C28.01972656 14.77964844 29.28945313 14.80929687 30.59765625 14.83984375 C33.73183485 14.91053951 36.86526956 14.96324012 40 15 C40.33 14.34 40.66 13.68 41 13 C41.495 14.485 41.495 14.485 42 16 C15.18188664 18.38987849 15.18188664 18.38987849 8.45214844 14.54394531 C4.38001967 10.70311833 2.01457327 6.17093731 0 1 C0 0.67 0 0.34 0 0 Z " fill="#12B5F2" transform="translate(263,649)"/>
<path d="M0 0 C0 3.57575896 -1.08840607 5.05295935 -3 8 C-1.83082031 8.06058594 -0.66164063 8.12117187 0.54296875 8.18359375 C2.09115614 8.26804034 3.63933268 8.35268625 5.1875 8.4375 C5.95642578 8.47681641 6.72535156 8.51613281 7.51757812 8.55664062 C11.43251075 8.77507034 15.17120688 9.08692108 19 10 C19 10.33 19 10.66 19 11 C10.09 11 1.18 11 -8 11 C-2 2 -2 2 0 0 Z " fill="#0B95EA" transform="translate(326,684)"/>
<path d="M0 0 C0.66 0.33 1.32 0.66 2 1 C-14.57558043 18.14280562 -14.57558043 18.14280562 -23 22 C-21.65396518 17.96189555 -19.34663277 16.52704924 -16 14 C-15.34 14 -14.68 14 -14 14 C-14 13.01 -14 12.02 -14 11 C-12.6444073 10.05108511 -11.27828785 9.11421457 -9.8671875 8.25 C-6.29580208 5.85911437 -3.18352265 2.87648239 0 0 Z " fill="#3FC8F6" transform="translate(735,452)"/>
<path d="M0 0 C0.66796875 1.74609375 0.66796875 1.74609375 1 4 C-0.07421875 6.03515625 -0.07421875 6.03515625 -1.6875 8.0625 C-2.20699219 8.73410156 -2.72648438 9.40570313 -3.26171875 10.09765625 C-5.02809095 12.03074223 -6.85839649 13.50227728 -9 15 C-9 14.34 -9 13.68 -9 13 C-9.99 12.67 -10.98 12.34 -12 12 C-10.92807816 10.6781638 -9.84197305 9.36782073 -8.75 8.0625 C-8.14671875 7.33160156 -7.5434375 6.60070312 -6.921875 5.84765625 C-4.83964647 3.84583899 -3.71890066 3.64486746 -1 3 C-0.67 2.01 -0.34 1.02 0 0 Z " fill="#32C0E5" transform="translate(748,434)"/>
<path d="M0 0 C0.65266846 0.05986084 1.30533691 0.11972168 1.9777832 0.18139648 C9.04610581 0.82715374 16.11621017 1.45016894 23.1875 2.0625 C24.23486328 2.15337891 25.28222656 2.24425781 26.36132812 2.33789062 C28.90753475 2.5587944 31.45375883 2.77949481 34 3 C31.00873681 4.72206188 28.89314287 5.24179923 25.453125 5.1953125 C24.18662109 5.18564453 24.18662109 5.18564453 22.89453125 5.17578125 C22.02183594 5.15902344 21.14914062 5.14226562 20.25 5.125 C19.36183594 5.11597656 18.47367188 5.10695313 17.55859375 5.09765625 C15.37211942 5.07414577 13.18619906 5.04128499 11 5 C10.67 4.34 10.34 3.68 10 3 C7.65092125 2.31068656 7.65092125 2.31068656 4.9375 1.875 C4.01839844 1.70742188 3.09929688 1.53984375 2.15234375 1.3671875 C1.44207031 1.24601562 0.73179687 1.12484375 0 1 C0 0.67 0 0.34 0 0 Z " fill="#1D8BA4" transform="translate(743,258)"/>
<path d="M0 0 C1.58323688 -0.027193 3.16661062 -0.04648306 4.75 -0.0625 C6.07257813 -0.07990234 6.07257813 -0.07990234 7.421875 -0.09765625 C9.8235228 -0.00668474 11.69515975 0.3714072 14 1 C16.08071366 1.36924582 18.16431713 1.72244301 20.25 2.0625 C21.32765625 2.23910156 22.4053125 2.41570313 23.515625 2.59765625 C24.33546875 2.73042969 25.1553125 2.86320313 26 3 C26 3.33 26 3.66 26 4 C18.08 4 10.16 4 2 4 C1.34 2.68 0.68 1.36 0 0 Z " fill="#1596ED" transform="translate(431,523)"/>
<path d="M0 0 C-1.10175536 2.47894956 -2.266293 4.3245446 -4 6.4375 C-5.93700009 8.91928137 -6.98570439 11.04163782 -8 14 C-8.99 13.67 -9.98 13.34 -11 13 C-11 12.01 -11 11.02 -11 10 C-11.99 10 -12.98 10 -14 10 C-14.33 8.35 -14.66 6.7 -15 5 C-14.34 5 -13.68 5 -13 5 C-12.01 6.485 -12.01 6.485 -11 8 C-10.37351562 7.4225 -9.74703125 6.845 -9.1015625 6.25 C-8.28429687 5.5075 -7.46703125 4.765 -6.625 4 C-5.81289063 3.2575 -5.00078125 2.515 -4.1640625 1.75 C-2 0 -2 0 0 0 Z " fill="#285683" transform="translate(747,244)"/>
<path d="M0 0 C1.32 0 2.64 0 4 0 C4 0.66 4 1.32 4 2 C4.99 2.33 5.98 2.66 7 3 C6.67 4.32 6.34 5.64 6 7 C3.1875 7.6875 3.1875 7.6875 0 8 C-1.875 6.5625 -1.875 6.5625 -3 5 C-1.125 1.125 -1.125 1.125 0 0 Z " fill="#27567D" transform="translate(240,477)"/>
<path d="M0 0 C8.58 0 17.16 0 26 0 C26 0.33 26 0.66 26 1 C7.29852632 4.01810526 7.29852632 4.01810526 2 3 C1.34 2.01 0.68 1.02 0 0 Z " fill="#468BE7" transform="translate(611,476)"/>
<path d="M0 0 C0.33 0.66 0.66 1.32 1 2 C-2.35253606 9.05853439 -6.6887985 15.300174 -12 21 C-12.99 20.67 -13.98 20.34 -15 20 C-14.29423828 19.22076172 -14.29423828 19.22076172 -13.57421875 18.42578125 C-7.82062627 12.37162131 -7.82062627 12.37162131 -4.5625 4.875 C-3.7770099 2.25669967 -2.24025983 1.44532892 0 0 Z " fill="#4090EE" transform="translate(740,410)"/>
<path d="M0 0 C0 0.66 0 1.32 0 2 C0.66 2.33 1.32 2.66 2 3 C-0.29070116 4.14535058 -1.59582592 4.12897171 -4.140625 4.1328125 C-4.96433594 4.13410156 -5.78804688 4.13539063 -6.63671875 4.13671875 C-7.49910156 4.13285156 -8.36148437 4.12898437 -9.25 4.125 C-10.09691406 4.12886719 -10.94382812 4.13273438 -11.81640625 4.13671875 C-16.32441198 4.12970785 -20.56387267 3.91332033 -25 3 C-25 2.67 -25 2.34 -25 2 C-21.20845538 1.66526866 -17.41674514 1.33245159 -13.625 1 C-12.54476563 0.90460937 -11.46453125 0.80921875 -10.3515625 0.7109375 C-8.8046875 0.57558594 -8.8046875 0.57558594 -7.2265625 0.4375 C-5.79691162 0.31181641 -5.79691162 0.31181641 -4.33837891 0.18359375 C-2 0 -2 0 0 0 Z " fill="#0F82F8" transform="translate(418,525)"/>
<path d="M0 0 C-1 3 -1 3 -2.76245117 4.15087891 C-3.51502197 4.50585449 -4.26759277 4.86083008 -5.04296875 5.2265625 C-5.86990234 5.6184375 -6.69683594 6.0103125 -7.54882812 6.4140625 C-8.41958984 6.81367188 -9.29035156 7.21328125 -10.1875 7.625 C-11.03892578 8.03234375 -11.89035156 8.4396875 -12.76757812 8.859375 C-17.17290142 10.91723677 -21.0989759 12.53476367 -26 13 C-23.69360756 9.54041135 -22.88604922 9.38887343 -19.0625 8.1875 C-13.74387621 6.3842199 -9.06588401 3.98366878 -4.21484375 1.171875 C-2 0 -2 0 0 0 Z " fill="#519BF1" transform="translate(696,455)"/>
<path d="M0 0 C1.15048828 0.06703125 2.30097656 0.1340625 3.48632812 0.203125 C4.65615234 0.23921875 5.82597656 0.2753125 7.03125 0.3125 C9.91544643 0.40667784 12.79296264 0.53805061 15.67382812 0.703125 C15.01382812 2.023125 14.35382813 3.343125 13.67382812 4.703125 C13.34382813 3.713125 13.01382812 2.723125 12.67382812 1.703125 C5.74382812 1.703125 -1.18617188 1.703125 -8.32617188 1.703125 C-8.65617187 3.023125 -8.98617188 4.343125 -9.32617188 5.703125 C-10.83928137 7.86612743 -12.56987454 9.72166134 -14.32617188 11.703125 C-14.32617188 7.82553951 -13.33705935 5.64096459 -11.24267578 2.4140625 C-7.90257286 -0.56777716 -4.30159542 -0.09974714 0 0 Z " fill="#71E1F8" transform="translate(400.326171875,592.296875)"/>
<path d="M0 0 C-3.3890361 2.2593574 -6.67984011 3.17000067 -10.5625 4.1875 C-11.24763672 4.37763672 -11.93277344 4.56777344 -12.63867188 4.76367188 C-17.75259249 6.12370376 -17.75259249 6.12370376 -20 5 C-18.3970947 4.18501438 -16.79262722 3.37310073 -15.1875 2.5625 C-14.29417969 2.11003906 -13.40085937 1.65757812 -12.48046875 1.19140625 C-7.82197565 -1.04613768 -5.05662002 -0.85867132 0 0 Z " fill="#0C71E9" transform="translate(319,544)"/>
<path d="M0 0 C3.24208567 0.35049575 4.61527704 0.56221181 6.8125 3.0625 C7.204375 3.701875 7.59625 4.34125 8 5 C3.56923077 8.07692308 3.56923077 8.07692308 0.6875 7.6875 C0.130625 7.460625 -0.42625 7.23375 -1 7 C-0.67 4.69 -0.34 2.38 0 0 Z " fill="#386687" transform="translate(276,450)"/>
<path d="M0 0 C3.96 0 7.92 0 12 0 C13.24546405 2.49092811 12.7767578 3.41080733 12 6 C7.24518354 5.42365861 4.02951788 3.44931479 0 1 C0 0.67 0 0.34 0 0 Z " fill="#294265" transform="translate(692,263)"/>
<path d="M0 0 C1.62992692 0.39695637 3.25392235 0.81832493 4.875 1.25 C6.23238281 1.59804688 6.23238281 1.59804688 7.6171875 1.953125 C10 3 10 3 12 7 C8.7 7.33 5.4 7.66 2 8 C2 6.68 2 5.36 2 4 C1.06716704 1.79932579 1.06716704 1.79932579 0 0 Z " fill="#214062" transform="translate(797,321)"/>
<path d="M0 0 C-3.3661564 1.89294858 -6.68270219 2.76552027 -10.4375 3.625 C-11.54996094 3.88539063 -12.66242188 4.14578125 -13.80859375 4.4140625 C-16.6383116 4.93359454 -19.13549955 5.11779254 -22 5 C-16.74025246 -0.25974754 -7.03865081 -1.96427465 0 0 Z " fill="#2584DA" transform="translate(352,533)"/>
<path d="M0 0 C0.33 0 0.66 0 1 0 C3.29612756 11.52164009 3.29612756 11.52164009 3 17 C1.68 17 0.36 17 -1 17 C-1.18451025 5.47835991 -1.18451025 5.47835991 0 0 Z " fill="#61E0EF" transform="translate(728,226)"/>
<path d="M0 0 C1.32 0.33 2.64 0.66 4 1 C4.625 3.375 4.625 3.375 5 6 C4.34 6.66 3.68 7.32 3 8 C0.875 7.625 0.875 7.625 -1 7 C-1.625 5.1875 -1.625 5.1875 -2 3 C-1.34 2.01 -0.68 1.02 0 0 Z " fill="#4E8CAF" transform="translate(668,527)"/>
<path d="M0 0 C3.69900008 0.88776002 7.34550461 1.94581864 11 3 C11 3.33 11 3.66 11 4 C6.05 4.66 1.1 5.32 -4 6 C-3.34 4.68 -2.68 3.36 -2 2 C-1.34 2 -0.68 2 0 2 C0 1.34 0 0.68 0 0 Z " fill="#195BE7" transform="translate(348,534)"/>
<path d="M0 0 C1.81495662 0.44850658 3.62693134 0.90909571 5.4375 1.375 C6.44683594 1.63023437 7.45617187 1.88546875 8.49609375 2.1484375 C11 3 11 3 12 5 C11.0625 7.125 11.0625 7.125 10 9 C8.70391053 8.06862408 7.41328368 7.1296434 6.125 6.1875 C5.40570312 5.66542969 4.68640625 5.14335937 3.9453125 4.60546875 C2 3 2 3 0 0 Z " fill="#BFD0F3" transform="translate(569,437)"/>
<path d="M0 0 C1.1446875 0.2784375 1.1446875 0.2784375 2.3125 0.5625 C5.08967375 1.22819173 5.08967375 1.22819173 8 0 C8 0.66 8 1.32 8 2 C7.34 2 6.68 2 6 2 C5.67 4.64 5.34 7.28 5 10 C4.01 9.67 3.02 9.34 2 9 C1.26953125 6.93359375 1.26953125 6.93359375 0.8125 4.4375 C0.65394531 3.61121094 0.49539063 2.78492188 0.33203125 1.93359375 C0.16767578 0.97646484 0.16767578 0.97646484 0 0 Z " fill="#224165" transform="translate(791,329)"/>
<path d="M0 0 C5.61 0.66 11.22 1.32 17 2 C17 2.33 17 2.66 17 3 C10.88019467 4.40454548 5.28260706 5.23268915 -1 5 C0.32 4.34 1.64 3.68 3 3 C3 2.34 3 1.68 3 1 C2.01 0.67 1.02 0.34 0 0 Z " fill="#87DDED" transform="translate(742,259)"/>
<path d="M0 0 C8.25 0 16.5 0 25 0 C24.67 1.32 24.34 2.64 24 4 C23.34 3.34 22.68 2.68 22 2 C19.96532566 1.72313935 19.96532566 1.72313935 17.6484375 1.8046875 C16.79765625 1.81113281 15.946875 1.81757812 15.0703125 1.82421875 C14.18085938 1.84097656 13.29140625 1.85773437 12.375 1.875 C11.02921875 1.88853516 11.02921875 1.88853516 9.65625 1.90234375 C7.43723414 1.9259503 5.21874923 1.9588769 3 2 C3.33 3.65 3.66 5.3 4 7 C1.23609263 4.59660228 0.95934081 3.83736322 0 0 Z " fill="#73E5F9" transform="translate(321,593)"/>
<path d="M0 0 C5.93242211 1.69497775 10.84041265 4.37823627 15 9 C14.67 9.66 14.34 10.32 14 11 C9.96407129 9.63079505 7.32473622 7.80419512 4.1875 4.9375 C3.39730469 4.22464844 2.60710938 3.51179688 1.79296875 2.77734375 C1.20128906 2.19082031 0.60960937 1.60429687 0 1 C0 0.67 0 0.34 0 0 Z " fill="#AECDF5" transform="translate(594,460)"/>
<path d="M0 0 C1.9375 0.75 1.9375 0.75 4 2 C4.8125 4.0625 4.8125 4.0625 5 6 C4 7 4 7 1.4375 7.0625 C0.2309375 7.0315625 0.2309375 7.0315625 -1 7 C-1.66 5.68 -2.32 4.36 -3 3 C-2.01 2.01 -1.02 1.02 0 0 Z " fill="#549BC3" transform="translate(293,393)"/>
<path d="M0 0 C2.4375 0.8125 2.4375 0.8125 5.4375 2.8125 C5.4375 3.8025 5.4375 4.7925 5.4375 5.8125 C4.7775 5.8125 4.1175 5.8125 3.4375 5.8125 C1.8125 3.8125 1.8125 3.8125 0.4375 1.8125 C-1.5425 2.8025 -1.5425 2.8025 -3.5625 3.8125 C-3.2325 4.8025 -2.9025 5.7925 -2.5625 6.8125 C-1.5725 7.1425 -0.5825 7.4725 0.4375 7.8125 C0.4375 8.4725 0.4375 9.1325 0.4375 9.8125 C-4.3125 9.0625 -4.3125 9.0625 -6.5625 6.8125 C-6.5625 2.8125 -6.5625 2.8125 -4.875 1 C-2.5625 -0.1875 -2.5625 -0.1875 0 0 Z " fill="#1A3555" transform="translate(294.5625,392.1875)"/>
<path d="M0 0 C0.66 0 1.32 0 2 0 C1.6875 1.9375 1.6875 1.9375 1 4 C0.01 4.33 -0.98 4.66 -2 5 C-3.20882096 7.00016466 -3.20882096 7.00016466 -4 9 C-4.99 9 -5.98 9 -7 9 C-7 9.66 -7 10.32 -7 11 C-8.98 11 -10.96 11 -13 11 C-13 10.34 -13 9.68 -13 9 C-11.741875 8.773125 -10.48375 8.54625 -9.1875 8.3125 C-5.91918663 7.51127327 -5.22707743 7.30276991 -3.125 4.5 C-2.75375 3.675 -2.3825 2.85 -2 2 C-1.34 1.34 -0.68 0.68 0 0 Z " fill="#182B43" transform="translate(321,341)"/>
<path d="M0 0 C1.65 0.33 3.3 0.66 5 1 C6.125 5.75 6.125 5.75 5 8 C3.125 7.6875 3.125 7.6875 1 7 C-1 4 -1 4 -0.625 1.8125 C-0.41875 1.214375 -0.2125 0.61625 0 0 Z " fill="#4D87AD" transform="translate(812,410)"/>
<path d="M0 0 C1.32 0.33 2.64 0.66 4 1 C3.67 3.31 3.34 5.62 3 8 C1.35 7.67 -0.3 7.34 -2 7 C-1.125 2.25 -1.125 2.25 0 0 Z " fill="#3B5B76" transform="translate(806,362)"/>
<path d="M0 0 C0.66 1.32 1.32 2.64 2 4 C-1.63 4 -5.26 4 -9 4 C-9 2.68 -9 1.36 -9 0 C-5.69978999 -0.8250525 -3.17546695 -1.42348518 0 0 Z " fill="#49D9FC" transform="translate(375,526)"/>
<path d="M0 0 C0 0.66 0 1.32 0 2 C-1.32 2 -2.64 2 -4 2 C-4.433125 2.8971875 -4.433125 2.8971875 -4.875 3.8125 C-6 6 -6 6 -8 9 C-8.66 9 -9.32 9 -10 9 C-10 7.68 -10 6.36 -10 5 C-10.66 5 -11.32 5 -12 5 C-12.33 4.01 -12.66 3.02 -13 2 C-12.443125 2.226875 -11.88625 2.45375 -11.3125 2.6875 C-7.10611708 3.25593012 -4.55362113 0 0 0 Z " fill="#182E4B" transform="translate(331,352)"/>
<path d="M0 0 C0.33 1.32 0.66 2.64 1 4 C1.66 4 2.32 4 3 4 C3.33 3.34 3.66 2.68 4 2 C3.34 7.28 2.68 12.56 2 18 C1.67 18 1.34 18 1 18 C-0.3792223 11.69661213 -1.41117949 6.3503077 0 0 Z " fill="#8FDBEC" transform="translate(727,280)"/>
<path d="M0 0 C0 3 0 3 -2.625 5.91796875 C-3.74249406 7.01550756 -4.86785643 8.10507895 -6 9.1875 C-6.57234375 9.74630859 -7.1446875 10.30511719 -7.734375 10.88085938 C-9.14962788 12.26073093 -10.57397155 13.63126734 -12 15 C-12.99 14.67 -13.98 14.34 -15 14 C-10.2347969 9.0759568 -5.11342667 4.55740358 0 0 Z " fill="#32BDDC" transform="translate(735,447)"/>
<path d="M0 0 C1.8871875 0.0309375 1.8871875 0.0309375 3.8125 0.0625 C1.72344114 2.46104906 0.29021747 3.89937696 -2.75 4.9375 C-5.1875 5.0625 -5.1875 5.0625 -8.1875 3.0625 C-6.45706736 -0.39836529 -3.47359009 -0.0569441 0 0 Z " fill="#1666F8" transform="translate(359.1875,531.9375)"/>
<path d="M0 0 C0 1.65 0 3.3 0 5 C-2.97 4.505 -2.97 4.505 -6 4 C-6.33 2.68 -6.66 1.36 -7 0 C-4.3333581 -1.33332095 -2.83319697 -0.67102033 0 0 Z " fill="#396382" transform="translate(312,511)"/>
<path d="M0 0 C0.99 0 1.98 0 3 0 C3 0.66 3 1.32 3 2 C3.99 2.33 4.98 2.66 6 3 C5.67 3.99 5.34 4.98 5 6 C3.125 6.8125 3.125 6.8125 1 7 C0.01 6.34 -0.98 5.68 -2 5 C-2 4.34 -2 3.68 -2 3 C-1.34 3 -0.68 3 0 3 C0 2.01 0 1.02 0 0 Z " fill="#83CAEA" transform="translate(320,347)"/>
<path d="M0 0 C0.66 0.33 1.32 0.66 2 1 C1.34 2.32 0.68 3.64 0 5 C0.99 6.485 0.99 6.485 2 8 C0.8553125 8.2165625 0.8553125 8.2165625 -0.3125 8.4375 C-3.08172908 8.9632594 -3.08172908 8.9632594 -6 10 C-5.67 8.02 -5.34 6.04 -5 4 C-4.01 4 -3.02 4 -2 4 C-1.34 2.68 -0.68 1.36 0 0 Z " fill="#4F86B5" transform="translate(738,264)"/>
<path d="M0 0 C3.61032268 1.20344089 3.98859218 2.15392526 5.9375 5.3125 C8.03337301 8.59481484 10.06113776 11.40023725 13 14 C12.34 14.66 11.68 15.32 11 16 C9.16283711 13.52365012 7.33092199 11.04346678 5.5 8.5625 C4.97535156 7.85544922 4.45070313 7.14839844 3.91015625 6.41992188 C3.41386719 5.74638672 2.91757812 5.07285156 2.40625 4.37890625 C1.94541016 3.7557251 1.48457031 3.13254395 1.00976562 2.49047852 C0 1 0 1 0 0 Z " fill="#1099EC" transform="translate(263,649)"/>
<path d="M0 0 C1.06528748 2.73019786 1.07998186 3.79298812 0.00390625 6.578125 C-0.47175781 7.45984375 -0.94742188 8.3415625 -1.4375 9.25 C-1.91058594 10.14203125 -2.38367188 11.0340625 -2.87109375 11.953125 C-3.24363281 12.62859375 -3.61617187 13.3040625 -4 14 C-5.06528748 11.26980214 -5.07998186 10.20701188 -4.00390625 7.421875 C-3.52824219 6.54015625 -3.05257812 5.6584375 -2.5625 4.75 C-2.08941406 3.85796875 -1.61632812 2.9659375 -1.12890625 2.046875 C-0.75636719 1.37140625 -0.38382813 0.6959375 0 0 Z " fill="#39B6E9" transform="translate(761,408)"/>
<path d="M0 0 C0.99 0.33 1.98 0.66 3 1 C2.67 3.97 2.34 6.94 2 10 C1.01 9.67 0.02 9.34 -1 9 C-2.1875 5.9375 -2.1875 5.9375 -3 3 C-2.01 2.01 -1.02 1.02 0 0 Z " fill="#366EA5" transform="translate(740,264)"/>
<path d="M0 0 C0.66 0 1.32 0 2 0 C2 0.66 2 1.32 2 2 C3.98 1.34 5.96 0.68 8 0 C7.34 2.31 6.68 4.62 6 7 C3.00675737 5.9024777 2.15389099 5.32317108 0.75 2.375 C0.5025 1.59125 0.255 0.8075 0 0 Z " fill="#26517A" transform="translate(711,244)"/>
<path d="M0 0 C0.66 0 1.32 0 2 0 C3.125 1.6875 3.125 1.6875 4 4 C3.125 6.75 3.125 6.75 2 9 C0.68 8.01 -0.64 7.02 -2 6 C-1.49396008 3.83125748 -1.00016187 2.00032373 0 0 Z " fill="#427EA4" transform="translate(761,480)"/>
<path d="M0 0 C0.66 0.99 1.32 1.98 2 3 C0.56394807 6.38818502 -1.20466579 8.3186598 -4 10.6875 C-4.70125 11.28949219 -5.4025 11.89148438 -6.125 12.51171875 C-8 14 -8 14 -10 15 C-8.32792152 11.33428949 -6.12684747 8.73953221 -3.4375 5.78125 C-1.95574686 3.94516459 -0.97653999 2.14087614 0 0 Z " fill="#116AF2" transform="translate(749,436)"/>
<path d="M0 0 C1.32 0 2.64 0 4 0 C4 0.66 4 1.32 4 2 C3.01 2 2.02 2 1 2 C0.67 4.31 0.34 6.62 0 9 C-1.98 8.34 -3.96 7.68 -6 7 C-2.25 4 -2.25 4 0 4 C0 2.68 0 1.36 0 0 Z " fill="#152A41" transform="translate(275,448)"/>
<path d="M0 0 C0.66 0 1.32 0 2 0 C2 1.65 2 3.3 2 5 C2.66 5 3.32 5 4 5 C3.67 6.32 3.34 7.64 3 9 C1.68 9 0.36 9 -1 9 C-0.67 6.03 -0.34 3.06 0 0 Z " fill="#2F4D6C" transform="translate(602,397)"/>
<path d="M0 0 C0.99 0.33 1.98 0.66 3 1 C-7.37357631 7.51936219 -7.37357631 7.51936219 -13 9 C-13 8.34 -13 7.68 -13 7 C-12.31292969 6.66226563 -11.62585938 6.32453125 -10.91796875 5.9765625 C-10.01691406 5.53054688 -9.11585938 5.08453125 -8.1875 4.625 C-7.29417969 4.18414063 -6.40085937 3.74328125 -5.48046875 3.2890625 C-2.85443619 1.98133095 -2.85443619 1.98133095 0 0 Z " fill="#176DE2" transform="translate(490,655)"/>
<path d="M0 0 C0.66 0.33 1.32 0.66 2 1 C-0.97 4.3 -3.94 7.6 -7 11 C-7.33 10.01 -7.66 9.02 -8 8 C-5.36 5.36 -2.72 2.72 0 0 Z " fill="#2E7CE1" transform="translate(725,431)"/>
<path d="M0 0 C1.32 0.66 2.64 1.32 4 2 C4 3.32 4 4.64 4 6 C1.03 5.505 1.03 5.505 -2 5 C-2 4.01 -2 3.02 -2 2 C-1.34 2 -0.68 2 0 2 C0 1.34 0 0.68 0 0 Z " fill="#CDF3FB" transform="translate(794,322)"/>
<path d="M0 0 C1.98 0 3.96 0 6 0 C6 0.99 6 1.98 6 3 C7.98 3 9.96 3 12 3 C12 3.33 12 3.66 12 4 C7.71 3.67 3.42 3.34 -1 3 C-0.67 2.01 -0.34 1.02 0 0 Z " fill="#A1D7E6" transform="translate(703,260)"/>
<path d="M0 0 C6.40353322 -0.2361959 11.84629161 0.176679 18 2 C16.4375 3.125 16.4375 3.125 14 4 C11.64315944 3.42190703 9.30988315 2.74386068 7 2 C4.67212073 1.63049535 2.33954855 1.28647533 0 1 C0 0.67 0 0.34 0 0 Z " fill="#63CFD9" transform="translate(519,252)"/>
<path d="M0 0 C0.99 0.33 1.98 0.66 3 1 C3 1.66 3 2.32 3 3 C-3.6 3 -10.2 3 -17 3 C-17 2.67 -17 2.34 -17 2 C-15.85660156 1.93941406 -14.71320312 1.87882812 -13.53515625 1.81640625 C-12.04425695 1.73201572 -10.55337225 1.64736698 -9.0625 1.5625 C-8.30775391 1.52318359 -7.55300781 1.48386719 -6.77539062 1.44335938 C-3.08055813 1.55961976 -3.08055813 1.55961976 0 0 Z " fill="#115EE3" transform="translate(592,482)"/>
<path d="M0 0 C1.65 0.99 3.3 1.98 5 3 C4.67 4.65 4.34 6.3 4 8 C2.02 8.33 0.04 8.66 -2 9 C-1.01 8.67 -0.02 8.34 1 8 C1.08226668 4.95613276 0.97608217 2.92824652 0 0 Z " fill="#5080AB" transform="translate(717,250)"/>
<path d="M0 0 C2.31 0 4.62 0 7 0 C7 0.99 7 1.98 7 3 C6.34 3 5.68 3 5 3 C5 3.66 5 4.32 5 5 C4.34 5 3.68 5 3 5 C3 4.34 3 3.68 3 3 C2.01 2.67 1.02 2.34 0 2 C0 1.34 0 0.68 0 0 Z " fill="#2A4662" transform="translate(374,555)"/>
<path d="M0 0 C0.66 0.99 1.32 1.98 2 3 C1.67 3.99 1.34 4.98 1 6 C0.67 5.67 0.34 5.34 0 5 C-0.99 6.485 -0.99 6.485 -2 8 C-2.66 7.67 -3.32 7.34 -4 7 C-3.39816251 4.97954558 -2.72693904 2.97888961 -2 1 C-1.34 0.67 -0.68 0.34 0 0 Z " fill="#265076" transform="translate(795,315)"/>
<path d="M0 0 C0.66 0 1.32 0 2 0 C2.66 0.99 3.32 1.98 4 3 C4.99 3.33 5.98 3.66 7 4 C7 5.66666667 7 7.33333333 7 9 C6.01 8.67 5.02 8.34 4 8 C4 7.01 4 6.02 4 5 C3.01 5 2.02 5 1 5 C0.67 3.35 0.34 1.7 0 0 Z " fill="#4278A7" transform="translate(732,249)"/>
<path d="M0 0 C0.66 0.66 1.32 1.32 2 2 C1.67176873 6.34906427 0.80260764 10.0342632 -1 14 C-2.13732426 10.59598052 -1.83989957 8.22543336 -1.0625 4.75 C-0.86785156 3.85796875 -0.67320312 2.9659375 -0.47265625 2.046875 C-0.31667969 1.37140625 -0.16070312 0.6959375 0 0 Z " fill="#26A0E6" transform="translate(207,607)"/>
<path d="M0 0 C1.1171875 1.703125 1.1171875 1.703125 2 4 C1.3203125 6.359375 1.3203125 6.359375 0.125 8.75 C-0.26429688 9.54921875 -0.65359375 10.3484375 -1.0546875 11.171875 C-1.36664063 11.77515625 -1.67859375 12.3784375 -2 13 C-2.66 13 -3.32 13 -4 13 C-3.52343588 11.20763933 -3.04366502 9.41613103 -2.5625 7.625 C-2.29566406 6.62726563 -2.02882813 5.62953125 -1.75390625 4.6015625 C-1 2 -1 2 0 0 Z " fill="#1A8CD1" transform="translate(335,442)"/>
<path d="M0 0 C0.33 0 0.66 0 1 0 C1.49230769 6.4 1.49230769 6.4 -1 9.4375 C-1.99 10.2109375 -1.99 10.2109375 -3 11 C-3.33 10.34 -3.66 9.68 -4 9 C-3.22265625 6.8359375 -3.22265625 6.8359375 -2.0625 4.375 C-1.68222656 3.55773437 -1.30195312 2.74046875 -0.91015625 1.8984375 C-0.60980469 1.27195312 -0.30945313 0.64546875 0 0 Z " fill="#0F7CF4" transform="translate(761,412)"/>
<path d="M0 0 C2.475 0.495 2.475 0.495 5 1 C5 1.99 5 2.98 5 4 C4.34 4 3.68 4 3 4 C3 4.66 3 5.32 3 6 C2.34 6 1.68 6 1 6 C0.67 4.02 0.34 2.04 0 0 Z " fill="#3B5F7D" transform="translate(616,535)"/>
<path d="M0 0 C0.99 0 1.98 0 3 0 C3.33 1.32 3.66 2.64 4 4 C0.25 5.125 0.25 5.125 -2 4 C-1.34 2.68 -0.68 1.36 0 0 Z " fill="#5EA0C3" transform="translate(239,478)"/>
<path d="M0 0 C-4.55426184 2.66590937 -7.73946963 3.31563182 -13 3 C-4.58823529 -1.52941176 -4.58823529 -1.52941176 0 0 Z " fill="#9EC7FC" transform="translate(671,467)"/>
<path d="M0 0 C0.99 0 1.98 0 3 0 C3 1.65 3 3.3 3 5 C1.35 4.67 -0.3 4.34 -2 4 C-1.34 2.68 -0.68 1.36 0 0 Z " fill="#3C698F" transform="translate(456,546)"/>
<path d="M0 0 C0 3.39593478 -0.52165948 4.06619881 -2.5 6.6875 C-2.9640625 7.31011719 -3.428125 7.93273437 -3.90625 8.57421875 C-4.2671875 9.04472656 -4.628125 9.51523437 -5 10 C-6 8 -6 8 -5.875 5.5625 C-5 3 -5 3 -2.4375 1.1875 C-1.633125 0.795625 -0.82875 0.40375 0 0 Z " fill="#0F4DD0" transform="translate(749,445)"/>
<path d="M0 0 C1.65 0 3.3 0 5 0 C2.525 4.455 2.525 4.455 0 9 C-0.95904856 5.16380575 -0.91892116 3.67568464 0 0 Z " fill="#295D93" transform="translate(742,264)"/>
<path d="M0 0 C0.99 0.66 1.98 1.32 3 2 C-0.75 8.875 -0.75 8.875 -3 10 C-2.01 6.7 -1.02 3.4 0 0 Z " fill="#2579D9" transform="translate(483,630)"/>
<path d="M0 0 C0.66 0.33 1.32 0.66 2 1 C-4.28571429 6.57142857 -4.28571429 6.57142857 -8 7 C-8 6.34 -8 5.68 -8 5 C-6.3203125 3.67578125 -6.3203125 3.67578125 -4.125 2.3125 C-3.40570312 1.85488281 -2.68640625 1.39726562 -1.9453125 0.92578125 C-1.30335938 0.62027344 -0.66140625 0.31476563 0 0 Z " fill="#3BC3E5" transform="translate(711,466)"/>
<path d="M0 0 C0 0.99 0 1.98 0 3 C-2.3125 5.25 -2.3125 5.25 -5 7 C-5.99 6.67 -6.98 6.34 -8 6 C-5.36 4.02 -2.72 2.04 0 0 Z " fill="#4F95F3" transform="translate(716,440)"/>
<path d="M0 0 C0.66 0 1.32 0 2 0 C1.67 1.98 1.34 3.96 1 6 C-0.32 6.33 -1.64 6.66 -3 7 C-2.01 4.69 -1.02 2.38 0 0 Z " fill="#124CEC" transform="translate(751,437)"/>
<path d="M0 0 C0.33 0.66 0.66 1.32 1 2 C1.66 2.33 2.32 2.66 3 3 C1.1875 5 1.1875 5 -1 7 C-1.99 7 -2.98 7 -4 7 C-2.79618552 4.50638429 -1.54571278 2.31856917 0 0 Z " fill="#2CB7D8" transform="translate(748,431)"/>
<path d="M0 0 C0.33 0.66 0.66 1.32 1 2 C0.06553465 4.03144641 -0.93224776 6.03533587 -2 8 C-2.99 7.67 -3.98 7.34 -5 7 C-4.60196439 4.11424181 -4.20990931 3.17810487 -1.9375 1.25 C-1.298125 0.8375 -0.65875 0.425 0 0 Z " fill="#6EB2F3" transform="translate(740,410)"/>
<path d="M0 0 C-0.33 1.32 -0.66 2.64 -1 4 C-3.64 4 -6.28 4 -9 4 C-8 2 -8 2 -5.0625 0.875 C-2 0 -2 0 0 0 Z " fill="#2D5982" transform="translate(791,323)"/>
<path d="M0 0 C0.99 0 1.98 0 3 0 C3 3.96 3 7.92 3 12 C2.67 12 2.34 12 2 12 C1.34 8.04 0.68 4.08 0 0 Z " fill="#53DCF5" transform="translate(537,314)"/>
<path d="M0 0 C-7.42857143 4.42857143 -7.42857143 4.42857143 -11 5 C-4.74206349 -1.42261905 -4.74206349 -1.42261905 0 0 Z " fill="#67B7E7" transform="translate(439,598)"/>
<path d="M0 0 C0.68359375 1.765625 0.68359375 1.765625 1 4 C-0.21484375 5.921875 -0.21484375 5.921875 -1.9375 7.75 C-2.50339844 8.36359375 -3.06929688 8.9771875 -3.65234375 9.609375 C-4.31943359 10.29773438 -4.31943359 10.29773438 -5 11 C-5 7.58678765 -4.33132534 6.60527115 -2.5 3.8125 C-2.0359375 3.09707031 -1.571875 2.38164063 -1.09375 1.64453125 C-0.7328125 1.10183594 -0.371875 0.55914063 0 0 Z " fill="#58C2E8" transform="translate(391,593)"/>
<path d="M0 0 C0.66 0.33 1.32 0.66 2 1 C0.63016497 4.16115776 0.0109362 4.9927092 -3 7 C-3.33 6.01 -3.66 5.02 -4 4 C-2.68 2.68 -1.36 1.36 0 0 Z " fill="#39D6F7" transform="translate(742,442)"/>
<path d="M0 0 C2.475 0.495 2.475 0.495 5 1 C5.33 1.99 5.66 2.98 6 4 C3.03 3.505 3.03 3.505 0 3 C0 2.01 0 1.02 0 0 Z " fill="#569CBB" transform="translate(641,363)"/>
<path d="M0 0 C1.64767247 0.28109113 3.29313145 0.57518526 4.9375 0.875 C5.85402344 1.03742188 6.77054688 1.19984375 7.71484375 1.3671875 C8.46894531 1.57601563 9.22304688 1.78484375 10 2 C10.33 2.66 10.66 3.32 11 4 C7.37 3.67 3.74 3.34 0 3 C0 2.01 0 1.02 0 0 Z " fill="#182E4B" transform="translate(780,325)"/>
<path d="M0 0 C0 0.33 0 0.66 0 1 C-3.63 1.66 -7.26 2.32 -11 3 C-6.77319309 -1.22680691 -5.69611211 -1.11445672 0 0 Z " fill="#176CD5" transform="translate(310,547)"/>
<path d="M0 0 C0.33 0.66 0.66 1.32 1 2 C-0.65 2.33 -2.3 2.66 -4 3 C-4 2.67 -4 2.34 -4 2 C-5.65 1.67 -7.3 1.34 -9 1 C-9 0.67 -9 0.34 -9 0 C-5.67032582 -0.83241855 -3.24733335 -1.2757381 0 0 Z " fill="#47CBDC" transform="translate(375,526)"/>
<path d="M0 0 C-0.33 0.99 -0.66 1.98 -1 3 C-3.97 3 -6.94 3 -10 3 C-6.26223701 0.50815801 -4.5227786 0 0 0 Z " fill="#42BCD4" transform="translate(672,485)"/>
<path d="M0 0 C0.66 0.33 1.32 0.66 2 1 C0.515 4.96 0.515 4.96 -1 9 C-1.66 8.01 -2.32 7.02 -3 6 C-1.65517241 1.65517241 -1.65517241 1.65517241 0 0 Z " fill="#0B57F3" transform="translate(759,421)"/>
<path d="M0 0 C0.66 0 1.32 0 2 0 C2.125 5.75 2.125 5.75 1 8 C0.34 8 -0.32 8 -1 8 C-0.67 5.36 -0.34 2.72 0 0 Z " fill="#0992E6" transform="translate(764,397)"/>
<path d="M0 0 C0.99 0 1.98 0 3 0 C4.0625 1.8125 4.0625 1.8125 5 4 C4.67 4.99 4.34 5.98 4 7 C3.34 6.01 2.68 5.02 2 4 C1.01 3.67 0.02 3.34 -1 3 C-0.67 2.01 -0.34 1.02 0 0 Z " fill="#1E3954" transform="translate(643,360)"/>
<path d="M0 0 C-0.33 3.63 -0.66 7.26 -1 11 C-1.33 11 -1.66 11 -2 11 C-2.33 7.7 -2.66 4.4 -3 1 C-1 0 -1 0 0 0 Z " fill="#98F7FB" transform="translate(730,287)"/>
<path d="M0 0 C2.31 0 4.62 0 7 0 C7 0.99 7 1.98 7 3 C6.01 3.33 5.02 3.66 4 4 C2.68 2.68 1.36 1.36 0 0 Z " fill="#42E6FA" transform="translate(353,252)"/>
<path d="M0 0 C0 4.0333534 -1.60879918 5.83517538 -4 9 C-4.66 9 -5.32 9 -6 9 C-4.47291037 5.56404834 -2.40072955 2.88087546 0 0 Z " fill="#108BDF" transform="translate(326,684)"/>
<path d="M0 0 C0.66 0.33 1.32 0.66 2 1 C1.67 3.64 1.34 6.28 1 9 C0.34 8.67 -0.32 8.34 -1 8 C-0.67 5.36 -0.34 2.72 0 0 Z " fill="#1067CA" transform="translate(200,643)"/>
<path d="M0 0 C3.125 0.375 3.125 0.375 6 1 C5.34 1.66 4.68 2.32 4 3 C0.875 2.625 0.875 2.625 -2 2 C-1.34 1.34 -0.68 0.68 0 0 Z " fill="#075BE0" transform="translate(319,542)"/>
<path d="M0 0 C1.65 0 3.3 0 5 0 C3.8553125 0.8971875 3.8553125 0.8971875 2.6875 1.8125 C0.6516425 3.46959332 -1.1978279 5.10297674 -3 7 C-3 5.68 -3 4.36 -3 3 C-2.34 3 -1.68 3 -1 3 C-0.67 2.01 -0.34 1.02 0 0 Z " fill="#101B32" transform="translate(800,328)"/>
<path d="M0 0 C2.31 0 4.62 0 7 0 C7 0.66 7 1.32 7 2 C6.401875 2.12375 5.80375 2.2475 5.1875 2.375 C2.73768652 2.95475985 2.73768652 2.95475985 0 5 C0 3.35 0 1.7 0 0 Z " fill="#153453" transform="translate(753,263)"/>
</svg>
